<?xml version="1.0" encoding="utf-8" standalone="no"?>
<!DOCTYPE svg PUBLIC "-//W3C//DTD SVG 1.1//EN"
  "http://www.w3.org/Graphics/SVG/1.1/DTD/svg11.dtd">
<svg xmlns:xlink="http://www.w3.org/1999/xlink" width="432pt" height="180pt" viewBox="0 0 432 180" xmlns="http://www.w3.org/2000/svg" version="1.1">
 <metadata>
  <rdf:RDF xmlns:dc="http://purl.org/dc/elements/1.1/" xmlns:cc="http://creativecommons.org/ns#" xmlns:rdf="http://www.w3.org/1999/02/22-rdf-syntax-ns#">
   <cc:Work>
    <dc:type rdf:resource="http://purl.org/dc/dcmitype/StillImage"/>
    <dc:date>2024-11-19T12:27:14.198408</dc:date>
    <dc:format>image/svg+xml</dc:format>
    <dc:creator>
     <cc:Agent>
      <dc:title>Matplotlib v3.9.0, https://matplotlib.org/</dc:title>
     </cc:Agent>
    </dc:creator>
   </cc:Work>
  </rdf:RDF>
 </metadata>
 <defs>
  <style type="text/css">*{stroke-linejoin: round; stroke-linecap: butt}</style>
 </defs>
 <g id="figure_1">
  <g id="patch_1">
   <path d="M 0 180 
L 432 180 
L 432 0 
L 0 0 
z
" style="fill: #ffffff"/>
  </g>
  <g id="axes_1">
   <g id="patch_2">
    <path d="M 36.403365 159.99976 
L 422.393866 159.99976 
L 422.393866 3.00024 
L 36.403365 3.00024 
z
" style="fill: #ffffff"/>
   </g>
   <g id="matplotlib.axis_1">
    <g id="xtick_1">
     <g id="line2d_1">
      <defs>
       <path id="m72dc9fabe5" d="M 0 0 
L 0 3.5 
" style="stroke: #000000; stroke-width: 0.8"/>
      </defs>
      <g>
       <use xlink:href="#m72dc9fabe5" x="36.403365" y="159.99976" style="stroke: #000000; stroke-width: 0.8"/>
      </g>
     </g>
     <g id="text_1">
      <!-- P -->
      <g transform="translate(33.388521 174.598197) scale(0.1 -0.1)">
       <defs>
        <path id="DejaVuSans-50" d="M 1259 4147 
L 1259 2394 
L 2053 2394 
Q 2494 2394 2734 2622 
Q 2975 2850 2975 3272 
Q 2975 3691 2734 3919 
Q 2494 4147 2053 4147 
L 1259 4147 
z
M 628 4666 
L 2053 4666 
Q 2838 4666 3239 4311 
Q 3641 3956 3641 3272 
Q 3641 2581 3239 2228 
Q 2838 1875 2053 1875 
L 1259 1875 
L 1259 0 
L 628 0 
L 628 4666 
z
" transform="scale(0.015625)"/>
       </defs>
       <use xlink:href="#DejaVuSans-50"/>
      </g>
     </g>
    </g>
    <g id="xtick_2">
     <g id="line2d_2">
      <g>
       <use xlink:href="#m72dc9fabe5" x="85.797088" y="159.99976" style="stroke: #000000; stroke-width: 0.8"/>
      </g>
     </g>
     <g id="text_2">
      <!-- N -->
      <g transform="translate(82.056463 174.598197) scale(0.1 -0.1)">
       <defs>
        <path id="DejaVuSans-4e" d="M 628 4666 
L 1478 4666 
L 3547 763 
L 3547 4666 
L 4159 4666 
L 4159 0 
L 3309 0 
L 1241 3903 
L 1241 0 
L 628 0 
L 628 4666 
z
" transform="scale(0.015625)"/>
       </defs>
       <use xlink:href="#DejaVuSans-4e"/>
      </g>
     </g>
    </g>
    <g id="xtick_3">
     <g id="line2d_3">
      <g>
       <use xlink:href="#m72dc9fabe5" x="141.189593" y="159.99976" style="stroke: #000000; stroke-width: 0.8"/>
      </g>
     </g>
     <g id="text_3">
      <!-- $\Gamma$ -->
      <g transform="translate(138.389593 174.598197) scale(0.1 -0.1)">
       <defs>
        <path id="DejaVuSans-393" d="M 628 0 
L 628 4666 
L 3531 4666 
L 3531 4134 
L 1259 4134 
L 1259 0 
L 628 0 
z
" transform="scale(0.015625)"/>
       </defs>
       <use xlink:href="#DejaVuSans-393" transform="translate(0 0.09375)"/>
      </g>
     </g>
    </g>
    <g id="xtick_4">
     <g id="line2d_4">
      <g>
       <use xlink:href="#m72dc9fabe5" x="191.335277" y="159.99976" style="stroke: #000000; stroke-width: 0.8"/>
      </g>
     </g>
     <g id="text_4">
      <!-- M1|M2 -->
      <g transform="translate(174.660277 174.641947) scale(0.1 -0.1)">
       <defs>
        <path id="DejaVuSans-4d" d="M 628 4666 
L 1569 4666 
L 2759 1491 
L 3956 4666 
L 4897 4666 
L 4897 0 
L 4281 0 
L 4281 4097 
L 3078 897 
L 2444 897 
L 1241 4097 
L 1241 0 
L 628 0 
L 628 4666 
z
" transform="scale(0.015625)"/>
        <path id="DejaVuSans-31" d="M 794 531 
L 1825 531 
L 1825 4091 
L 703 3866 
L 703 4441 
L 1819 4666 
L 2450 4666 
L 2450 531 
L 3481 531 
L 3481 0 
L 794 0 
L 794 531 
z
" transform="scale(0.015625)"/>
        <path id="DejaVuSans-7c" d="M 1344 4891 
L 1344 -1509 
L 813 -1509 
L 813 4891 
L 1344 4891 
z
" transform="scale(0.015625)"/>
        <path id="DejaVuSans-32" d="M 1228 531 
L 3431 531 
L 3431 0 
L 469 0 
L 469 531 
Q 828 903 1448 1529 
Q 2069 2156 2228 2338 
Q 2531 2678 2651 2914 
Q 2772 3150 2772 3378 
Q 2772 3750 2511 3984 
Q 2250 4219 1831 4219 
Q 1534 4219 1204 4116 
Q 875 4013 500 3803 
L 500 4441 
Q 881 4594 1212 4672 
Q 1544 4750 1819 4750 
Q 2544 4750 2975 4387 
Q 3406 4025 3406 3419 
Q 3406 3131 3298 2873 
Q 3191 2616 2906 2266 
Q 2828 2175 2409 1742 
Q 1991 1309 1228 531 
z
" transform="scale(0.015625)"/>
       </defs>
       <use xlink:href="#DejaVuSans-4d"/>
       <use xlink:href="#DejaVuSans-31" x="86.279297"/>
       <use xlink:href="#DejaVuSans-7c" x="149.902344"/>
       <use xlink:href="#DejaVuSans-4d" x="183.59375"/>
       <use xlink:href="#DejaVuSans-32" x="269.873047"/>
      </g>
     </g>
    </g>
    <g id="xtick_5">
     <g id="line2d_5">
      <g>
       <use xlink:href="#m72dc9fabe5" x="241.480021" y="159.99976" style="stroke: #000000; stroke-width: 0.8"/>
      </g>
     </g>
     <g id="text_5">
      <!-- $\Gamma$ -->
      <g transform="translate(238.680021 174.598197) scale(0.1 -0.1)">
       <use xlink:href="#DejaVuSans-393" transform="translate(0 0.09375)"/>
      </g>
     </g>
    </g>
    <g id="xtick_6">
     <g id="line2d_6">
      <g>
       <use xlink:href="#m72dc9fabe5" x="311.333439" y="159.99976" style="stroke: #000000; stroke-width: 0.8"/>
      </g>
     </g>
     <g id="text_6">
      <!-- X1 -->
      <g transform="translate(304.727189 174.598197) scale(0.1 -0.1)">
       <defs>
        <path id="DejaVuSans-58" d="M 403 4666 
L 1081 4666 
L 2241 2931 
L 3406 4666 
L 4084 4666 
L 2584 2425 
L 4184 0 
L 3506 0 
L 2194 1984 
L 872 0 
L 191 0 
L 1856 2491 
L 403 4666 
z
" transform="scale(0.015625)"/>
       </defs>
       <use xlink:href="#DejaVuSans-58"/>
       <use xlink:href="#DejaVuSans-31" x="68.505859"/>
      </g>
     </g>
    </g>
    <g id="xtick_7">
     <g id="line2d_7">
      <g>
       <use xlink:href="#m72dc9fabe5" x="336.405342" y="159.99976" style="stroke: #000000; stroke-width: 0.8"/>
      </g>
     </g>
     <g id="text_7">
      <!-- P|M -->
      <g transform="translate(327.39206 174.641947) scale(0.1 -0.1)">
       <use xlink:href="#DejaVuSans-50"/>
       <use xlink:href="#DejaVuSans-7c" x="60.302734"/>
       <use xlink:href="#DejaVuSans-4d" x="93.994141"/>
      </g>
     </g>
    </g>
    <g id="xtick_8">
     <g id="line2d_8">
      <g>
       <use xlink:href="#m72dc9fabe5" x="422.39351" y="159.99976" style="stroke: #000000; stroke-width: 0.8"/>
      </g>
     </g>
     <g id="text_8">
      <!-- X2 -->
      <g transform="translate(415.78726 174.598197) scale(0.1 -0.1)">
       <use xlink:href="#DejaVuSans-58"/>
       <use xlink:href="#DejaVuSans-32" x="68.505859"/>
      </g>
     </g>
    </g>
   </g>
   <g id="matplotlib.axis_2">
    <g id="ytick_1">
     <g id="line2d_9">
      <defs>
       <path id="m81ceb53030" d="M 0 0 
L -3.5 0 
" style="stroke: #000000; stroke-width: 0.8"/>
      </defs>
      <g>
       <use xlink:href="#m81ceb53030" x="36.403365" y="150.769057" style="stroke: #000000; stroke-width: 0.8"/>
      </g>
     </g>
     <g id="text_9">
      <!-- 0 -->
      <g transform="translate(23.040865 154.568276) scale(0.1 -0.1)">
       <defs>
        <path id="DejaVuSans-30" d="M 2034 4250 
Q 1547 4250 1301 3770 
Q 1056 3291 1056 2328 
Q 1056 1369 1301 889 
Q 1547 409 2034 409 
Q 2525 409 2770 889 
Q 3016 1369 3016 2328 
Q 3016 3291 2770 3770 
Q 2525 4250 2034 4250 
z
M 2034 4750 
Q 2819 4750 3233 4129 
Q 3647 3509 3647 2328 
Q 3647 1150 3233 529 
Q 2819 -91 2034 -91 
Q 1250 -91 836 529 
Q 422 1150 422 2328 
Q 422 3509 836 4129 
Q 1250 4750 2034 4750 
z
" transform="scale(0.015625)"/>
       </defs>
       <use xlink:href="#DejaVuSans-30"/>
      </g>
     </g>
    </g>
    <g id="ytick_2">
     <g id="line2d_10">
      <g>
       <use xlink:href="#m81ceb53030" x="36.403365" y="123.054275" style="stroke: #000000; stroke-width: 0.8"/>
      </g>
     </g>
     <g id="text_10">
      <!-- 2 -->
      <g transform="translate(23.040865 126.853493) scale(0.1 -0.1)">
       <use xlink:href="#DejaVuSans-32"/>
      </g>
     </g>
    </g>
    <g id="ytick_3">
     <g id="line2d_11">
      <g>
       <use xlink:href="#m81ceb53030" x="36.403365" y="95.339492" style="stroke: #000000; stroke-width: 0.8"/>
      </g>
     </g>
     <g id="text_11">
      <!-- 4 -->
      <g transform="translate(23.040865 99.138711) scale(0.1 -0.1)">
       <defs>
        <path id="DejaVuSans-34" d="M 2419 4116 
L 825 1625 
L 2419 1625 
L 2419 4116 
z
M 2253 4666 
L 3047 4666 
L 3047 1625 
L 3713 1625 
L 3713 1100 
L 3047 1100 
L 3047 0 
L 2419 0 
L 2419 1100 
L 313 1100 
L 313 1709 
L 2253 4666 
z
" transform="scale(0.015625)"/>
       </defs>
       <use xlink:href="#DejaVuSans-34"/>
      </g>
     </g>
    </g>
    <g id="ytick_4">
     <g id="line2d_12">
      <g>
       <use xlink:href="#m81ceb53030" x="36.403365" y="67.624709" style="stroke: #000000; stroke-width: 0.8"/>
      </g>
     </g>
     <g id="text_12">
      <!-- 6 -->
      <g transform="translate(23.040865 71.423928) scale(0.1 -0.1)">
       <defs>
        <path id="DejaVuSans-36" d="M 2113 2584 
Q 1688 2584 1439 2293 
Q 1191 2003 1191 1497 
Q 1191 994 1439 701 
Q 1688 409 2113 409 
Q 2538 409 2786 701 
Q 3034 994 3034 1497 
Q 3034 2003 2786 2293 
Q 2538 2584 2113 2584 
z
M 3366 4563 
L 3366 3988 
Q 3128 4100 2886 4159 
Q 2644 4219 2406 4219 
Q 1781 4219 1451 3797 
Q 1122 3375 1075 2522 
Q 1259 2794 1537 2939 
Q 1816 3084 2150 3084 
Q 2853 3084 3261 2657 
Q 3669 2231 3669 1497 
Q 3669 778 3244 343 
Q 2819 -91 2113 -91 
Q 1303 -91 875 529 
Q 447 1150 447 2328 
Q 447 3434 972 4092 
Q 1497 4750 2381 4750 
Q 2619 4750 2861 4703 
Q 3103 4656 3366 4563 
z
" transform="scale(0.015625)"/>
       </defs>
       <use xlink:href="#DejaVuSans-36"/>
      </g>
     </g>
    </g>
    <g id="ytick_5">
     <g id="line2d_13">
      <g>
       <use xlink:href="#m81ceb53030" x="36.403365" y="39.909927" style="stroke: #000000; stroke-width: 0.8"/>
      </g>
     </g>
     <g id="text_13">
      <!-- 8 -->
      <g transform="translate(23.040865 43.709146) scale(0.1 -0.1)">
       <defs>
        <path id="DejaVuSans-38" d="M 2034 2216 
Q 1584 2216 1326 1975 
Q 1069 1734 1069 1313 
Q 1069 891 1326 650 
Q 1584 409 2034 409 
Q 2484 409 2743 651 
Q 3003 894 3003 1313 
Q 3003 1734 2745 1975 
Q 2488 2216 2034 2216 
z
M 1403 2484 
Q 997 2584 770 2862 
Q 544 3141 544 3541 
Q 544 4100 942 4425 
Q 1341 4750 2034 4750 
Q 2731 4750 3128 4425 
Q 3525 4100 3525 3541 
Q 3525 3141 3298 2862 
Q 3072 2584 2669 2484 
Q 3125 2378 3379 2068 
Q 3634 1759 3634 1313 
Q 3634 634 3220 271 
Q 2806 -91 2034 -91 
Q 1263 -91 848 271 
Q 434 634 434 1313 
Q 434 1759 690 2068 
Q 947 2378 1403 2484 
z
M 1172 3481 
Q 1172 3119 1398 2916 
Q 1625 2713 2034 2713 
Q 2441 2713 2670 2916 
Q 2900 3119 2900 3481 
Q 2900 3844 2670 4047 
Q 2441 4250 2034 4250 
Q 1625 4250 1398 4047 
Q 1172 3844 1172 3481 
z
" transform="scale(0.015625)"/>
       </defs>
       <use xlink:href="#DejaVuSans-38"/>
      </g>
     </g>
    </g>
    <g id="ytick_6">
     <g id="line2d_14">
      <g>
       <use xlink:href="#m81ceb53030" x="36.403365" y="12.195144" style="stroke: #000000; stroke-width: 0.8"/>
      </g>
     </g>
     <g id="text_14">
      <!-- 10 -->
      <g transform="translate(16.678365 15.994363) scale(0.1 -0.1)">
       <use xlink:href="#DejaVuSans-31"/>
       <use xlink:href="#DejaVuSans-30" x="63.623047"/>
      </g>
     </g>
    </g>
    <g id="text_15">
     <!-- Frequency (THz) -->
     <g transform="translate(10.598677 122.258594) rotate(-90) scale(0.1 -0.1)">
      <defs>
       <path id="DejaVuSans-46" d="M 628 4666 
L 3309 4666 
L 3309 4134 
L 1259 4134 
L 1259 2759 
L 3109 2759 
L 3109 2228 
L 1259 2228 
L 1259 0 
L 628 0 
L 628 4666 
z
" transform="scale(0.015625)"/>
       <path id="DejaVuSans-72" d="M 2631 2963 
Q 2534 3019 2420 3045 
Q 2306 3072 2169 3072 
Q 1681 3072 1420 2755 
Q 1159 2438 1159 1844 
L 1159 0 
L 581 0 
L 581 3500 
L 1159 3500 
L 1159 2956 
Q 1341 3275 1631 3429 
Q 1922 3584 2338 3584 
Q 2397 3584 2469 3576 
Q 2541 3569 2628 3553 
L 2631 2963 
z
" transform="scale(0.015625)"/>
       <path id="DejaVuSans-65" d="M 3597 1894 
L 3597 1613 
L 953 1613 
Q 991 1019 1311 708 
Q 1631 397 2203 397 
Q 2534 397 2845 478 
Q 3156 559 3463 722 
L 3463 178 
Q 3153 47 2828 -22 
Q 2503 -91 2169 -91 
Q 1331 -91 842 396 
Q 353 884 353 1716 
Q 353 2575 817 3079 
Q 1281 3584 2069 3584 
Q 2775 3584 3186 3129 
Q 3597 2675 3597 1894 
z
M 3022 2063 
Q 3016 2534 2758 2815 
Q 2500 3097 2075 3097 
Q 1594 3097 1305 2825 
Q 1016 2553 972 2059 
L 3022 2063 
z
" transform="scale(0.015625)"/>
       <path id="DejaVuSans-71" d="M 947 1747 
Q 947 1113 1208 752 
Q 1469 391 1925 391 
Q 2381 391 2643 752 
Q 2906 1113 2906 1747 
Q 2906 2381 2643 2742 
Q 2381 3103 1925 3103 
Q 1469 3103 1208 2742 
Q 947 2381 947 1747 
z
M 2906 525 
Q 2725 213 2448 61 
Q 2172 -91 1784 -91 
Q 1150 -91 751 415 
Q 353 922 353 1747 
Q 353 2572 751 3078 
Q 1150 3584 1784 3584 
Q 2172 3584 2448 3432 
Q 2725 3281 2906 2969 
L 2906 3500 
L 3481 3500 
L 3481 -1331 
L 2906 -1331 
L 2906 525 
z
" transform="scale(0.015625)"/>
       <path id="DejaVuSans-75" d="M 544 1381 
L 544 3500 
L 1119 3500 
L 1119 1403 
Q 1119 906 1312 657 
Q 1506 409 1894 409 
Q 2359 409 2629 706 
Q 2900 1003 2900 1516 
L 2900 3500 
L 3475 3500 
L 3475 0 
L 2900 0 
L 2900 538 
Q 2691 219 2414 64 
Q 2138 -91 1772 -91 
Q 1169 -91 856 284 
Q 544 659 544 1381 
z
M 1991 3584 
L 1991 3584 
z
" transform="scale(0.015625)"/>
       <path id="DejaVuSans-6e" d="M 3513 2113 
L 3513 0 
L 2938 0 
L 2938 2094 
Q 2938 2591 2744 2837 
Q 2550 3084 2163 3084 
Q 1697 3084 1428 2787 
Q 1159 2491 1159 1978 
L 1159 0 
L 581 0 
L 581 3500 
L 1159 3500 
L 1159 2956 
Q 1366 3272 1645 3428 
Q 1925 3584 2291 3584 
Q 2894 3584 3203 3211 
Q 3513 2838 3513 2113 
z
" transform="scale(0.015625)"/>
       <path id="DejaVuSans-63" d="M 3122 3366 
L 3122 2828 
Q 2878 2963 2633 3030 
Q 2388 3097 2138 3097 
Q 1578 3097 1268 2742 
Q 959 2388 959 1747 
Q 959 1106 1268 751 
Q 1578 397 2138 397 
Q 2388 397 2633 464 
Q 2878 531 3122 666 
L 3122 134 
Q 2881 22 2623 -34 
Q 2366 -91 2075 -91 
Q 1284 -91 818 406 
Q 353 903 353 1747 
Q 353 2603 823 3093 
Q 1294 3584 2113 3584 
Q 2378 3584 2631 3529 
Q 2884 3475 3122 3366 
z
" transform="scale(0.015625)"/>
       <path id="DejaVuSans-79" d="M 2059 -325 
Q 1816 -950 1584 -1140 
Q 1353 -1331 966 -1331 
L 506 -1331 
L 506 -850 
L 844 -850 
Q 1081 -850 1212 -737 
Q 1344 -625 1503 -206 
L 1606 56 
L 191 3500 
L 800 3500 
L 1894 763 
L 2988 3500 
L 3597 3500 
L 2059 -325 
z
" transform="scale(0.015625)"/>
       <path id="DejaVuSans-20" transform="scale(0.015625)"/>
       <path id="DejaVuSans-28" d="M 1984 4856 
Q 1566 4138 1362 3434 
Q 1159 2731 1159 2009 
Q 1159 1288 1364 580 
Q 1569 -128 1984 -844 
L 1484 -844 
Q 1016 -109 783 600 
Q 550 1309 550 2009 
Q 550 2706 781 3412 
Q 1013 4119 1484 4856 
L 1984 4856 
z
" transform="scale(0.015625)"/>
       <path id="DejaVuSans-54" d="M -19 4666 
L 3928 4666 
L 3928 4134 
L 2272 4134 
L 2272 0 
L 1638 0 
L 1638 4134 
L -19 4134 
L -19 4666 
z
" transform="scale(0.015625)"/>
       <path id="DejaVuSans-48" d="M 628 4666 
L 1259 4666 
L 1259 2753 
L 3553 2753 
L 3553 4666 
L 4184 4666 
L 4184 0 
L 3553 0 
L 3553 2222 
L 1259 2222 
L 1259 0 
L 628 0 
L 628 4666 
z
" transform="scale(0.015625)"/>
       <path id="DejaVuSans-7a" d="M 353 3500 
L 3084 3500 
L 3084 2975 
L 922 459 
L 3084 459 
L 3084 0 
L 275 0 
L 275 525 
L 2438 3041 
L 353 3041 
L 353 3500 
z
" transform="scale(0.015625)"/>
       <path id="DejaVuSans-29" d="M 513 4856 
L 1013 4856 
Q 1481 4119 1714 3412 
Q 1947 2706 1947 2009 
Q 1947 1309 1714 600 
Q 1481 -109 1013 -844 
L 513 -844 
Q 928 -128 1133 580 
Q 1338 1288 1338 2009 
Q 1338 2731 1133 3434 
Q 928 4138 513 4856 
z
" transform="scale(0.015625)"/>
      </defs>
      <use xlink:href="#DejaVuSans-46"/>
      <use xlink:href="#DejaVuSans-72" x="50.269531"/>
      <use xlink:href="#DejaVuSans-65" x="89.132812"/>
      <use xlink:href="#DejaVuSans-71" x="150.65625"/>
      <use xlink:href="#DejaVuSans-75" x="214.132812"/>
      <use xlink:href="#DejaVuSans-65" x="277.511719"/>
      <use xlink:href="#DejaVuSans-6e" x="339.035156"/>
      <use xlink:href="#DejaVuSans-63" x="402.414062"/>
      <use xlink:href="#DejaVuSans-79" x="457.394531"/>
      <use xlink:href="#DejaVuSans-20" x="516.574219"/>
      <use xlink:href="#DejaVuSans-28" x="548.361328"/>
      <use xlink:href="#DejaVuSans-54" x="587.375"/>
      <use xlink:href="#DejaVuSans-48" x="648.458984"/>
      <use xlink:href="#DejaVuSans-7a" x="723.654297"/>
      <use xlink:href="#DejaVuSans-29" x="776.144531"/>
     </g>
    </g>
   </g>
   <g id="line2d_15">
    <path d="M 36.403365 132.308214 
L 40.394773 132.425294 
L 55.362553 133.192062 
L 66.837851 133.265835 
L 78.812075 133.439892 
L 88.594657 133.563782 
L 91.951798 133.953242 
L 95.868462 134.675867 
L 100.34465 135.747481 
L 105.380361 137.183743 
L 110.975596 139.003529 
L 117.689878 141.418618 
L 126.642254 144.886309 
L 138.951771 149.900459 
L 139.511294 150.211611 
L 140.070818 150.902102 
L 140.630341 151.144989 
L 141.189865 151.009197 
L 141.189865 151.009197 
L 141.69638 151.141254 
L 144.73547 152.540413 
L 145.7485 152.800154 
L 146.761531 152.863418 
L 147.774561 152.635975 
L 148.281076 152.345704 
L 148.787591 151.806135 
L 149.294106 149.893336 
L 150.307136 148.36472 
L 151.826681 146.710176 
L 153.852742 144.822095 
L 155.878802 143.217366 
L 157.904862 141.867565 
L 160.437438 140.442861 
L 164.489558 138.473824 
L 169.048194 136.485893 
L 172.5938 135.190278 
L 178.165465 133.476286 
L 184.750161 131.644564 
L 188.295767 130.859662 
L 190.321827 130.607209 
L 192.347888 130.607209 
L 194.373948 130.859662 
L 197.413038 131.517656 
L 202.478189 132.887955 
L 209.5694 135.024543 
L 213.115006 136.284945 
L 217.167126 138.010543 
L 221.725762 140.182232 
L 224.764853 141.867565 
L 226.790913 143.217366 
L 228.816973 144.822095 
L 230.843033 146.710176 
L 232.362579 148.36472 
L 232.869094 149.021974 
L 233.375609 149.893336 
L 233.882124 151.806135 
L 234.388639 152.345704 
L 234.895154 152.635975 
L 235.908184 152.863418 
L 236.921214 152.800154 
L 237.934245 152.540413 
L 239.45379 151.904488 
L 241.47985 151.010075 
L 241.47985 151.010075 
L 242.185438 150.736282 
L 242.891026 150.304625 
L 247.830141 148.413514 
L 261.236312 143.528579 
L 269.703367 140.661552 
L 276.053658 138.714797 
L 281.698361 137.211651 
L 285.931889 136.297097 
L 289.459829 135.742915 
L 292.987768 135.443043 
L 296.515708 135.410691 
L 301.454823 135.641095 
L 308.510702 135.964856 
L 313.359114 135.961528 
L 316.398205 135.727227 
L 319.184038 135.268337 
L 323.742673 134.21488 
L 328.807824 133.131972 
L 332.35343 132.576052 
L 335.39252 132.331636 
L 336.40555 132.308214 
L 336.40555 130.572511 
L 340.748395 130.653932 
L 344.22267 131.02472 
L 350.302652 131.934116 
L 358.119771 133.318017 
L 361.594047 134.111028 
L 370.279735 136.324404 
L 372.885442 136.743581 
L 375.491148 136.949273 
L 378.096855 136.908327 
L 380.702561 136.615604 
L 385.045406 135.974034 
L 391.125388 135.45609 
L 398.073938 134.894692 
L 402.416782 134.807388 
L 406.759627 134.981732 
L 414.576746 135.625783 
L 419.788159 135.951075 
L 422.393866 135.998414 
L 422.393866 135.998414 
" clip-path="url(#p17b662e220)" style="fill: none; stroke: #000000; stroke-linecap: square"/>
   </g>
   <g id="line2d_16">
    <path d="M 36.403365 131.508784 
L 45.384033 131.650467 
L 54.863627 132.109214 
L 59.353961 132.250261 
L 62.846443 132.131689 
L 66.837851 131.748793 
L 73.323889 130.85406 
L 84.799187 129.232346 
L 86.356563 129.182271 
L 88.594657 129.361636 
L 91.392274 129.796946 
L 94.749415 130.536149 
L 99.225603 131.750802 
L 104.261314 133.350839 
L 108.737502 134.988612 
L 113.773214 137.072987 
L 119.368449 139.636843 
L 126.642254 143.240357 
L 135.59463 147.932642 
L 140.630341 150.598465 
L 141.189865 150.787552 
L 141.189865 150.787552 
L 144.228955 149.979651 
L 146.255016 149.096289 
L 149.294106 147.455298 
L 152.333196 145.563895 
L 158.917892 141.216186 
L 161.956983 139.58718 
L 166.515619 137.438753 
L 170.061224 136.009088 
L 174.113345 134.639377 
L 181.711071 132.362329 
L 186.776222 131.024249 
L 189.308797 130.572382 
L 191.334857 130.443967 
L 191.334857 130.443967 
L 193.360918 130.572382 
L 195.893493 131.024249 
L 199.439099 131.932897 
L 207.036825 134.168251 
L 212.101976 135.825513 
L 215.647581 137.218763 
L 219.699702 139.086805 
L 223.245307 140.927186 
L 225.777883 142.45906 
L 234.388639 148.025759 
L 237.427729 149.57228 
L 238.947275 150.1522 
L 240.973335 150.661213 
L 241.47985 150.787555 
L 241.47985 150.787555 
L 242.185438 150.542874 
L 244.302202 149.296062 
L 252.769257 144.731343 
L 261.9419 140.014508 
L 269.703367 136.287701 
L 276.053658 133.487783 
L 280.287186 131.835969 
L 283.109537 130.96323 
L 284.520713 130.685441 
L 285.931889 130.576888 
L 288.048653 130.680456 
L 296.515708 131.414278 
L 300.043647 131.712817 
L 302.865999 132.168339 
L 307.805114 133.039911 
L 310.627466 133.260185 
L 315.131917 133.219563 
L 319.437295 132.977938 
L 328.554567 132.144175 
L 335.139263 131.523406 
L 336.40555 131.508784 
L 336.40555 130.443967 
L 339.879826 130.56884 
L 348.565514 131.156191 
L 352.03979 131.657318 
L 356.382634 132.552162 
L 362.462616 133.921561 
L 368.542598 134.974591 
L 373.754011 135.6743 
L 378.096855 136.008703 
L 381.57113 136.059656 
L 383.308268 135.969984 
L 385.045406 135.587968 
L 388.519681 134.487249 
L 396.336801 131.854442 
L 398.942507 131.301245 
L 400.679645 131.16922 
L 404.15392 131.261297 
L 408.496764 131.557945 
L 411.97104 132.011046 
L 418.91959 133.097174 
L 421.525297 133.258709 
L 422.393866 133.269653 
L 422.393866 133.269653 
" clip-path="url(#p17b662e220)" style="fill: none; stroke: #000000; stroke-linecap: square"/>
   </g>
   <g id="line2d_17">
    <path d="M 36.403365 131.223684 
L 39.895847 131.309259 
L 42.889403 131.293085 
L 47.878663 130.984678 
L 52.867923 130.459817 
L 58.356109 129.658764 
L 67.835703 128.205392 
L 70.829259 128.079663 
L 74.820667 128.168317 
L 80.308853 128.515982 
L 86.916086 128.962493 
L 91.392274 128.690226 
L 98.666079 128.212886 
L 101.463697 128.279044 
L 104.261314 128.591184 
L 107.058932 129.157996 
L 109.856549 130.001426 
L 112.654167 131.122091 
L 115.451784 132.484406 
L 118.808925 134.377581 
L 122.72559 136.865559 
L 127.201778 139.98413 
L 133.356536 144.583181 
L 140.630341 150.146154 
L 141.189865 150.769506 
L 141.189865 150.769506 
L 145.7485 148.407336 
L 147.774561 147.163592 
L 149.800621 145.60667 
L 152.839712 142.870711 
L 156.385317 139.703776 
L 158.917892 137.715304 
L 162.463498 135.250994 
L 168.035164 131.651977 
L 171.074254 129.937735 
L 173.60683 128.78259 
L 175.63289 128.080797 
L 177.65895 127.599435 
L 178.671981 127.485261 
L 181.711071 127.631641 
L 191.841372 128.31378 
L 195.386978 128.116588 
L 203.997734 127.485261 
L 205.51728 127.697761 
L 207.54334 128.236296 
L 209.5694 128.990205 
L 212.101976 130.201535 
L 215.141066 131.96314 
L 220.206217 135.250994 
L 224.258337 138.093361 
L 226.790913 140.132243 
L 230.336518 143.340413 
L 233.375609 146.024468 
L 235.401669 147.50168 
L 237.427729 148.683194 
L 241.47985 150.769506 
L 241.47985 150.769506 
L 242.891026 149.554321 
L 254.180433 140.703308 
L 258.41396 137.719445 
L 261.9419 135.466933 
L 265.469839 133.472985 
L 268.292191 132.092392 
L 271.114543 130.926495 
L 273.936894 129.999036 
L 276.759246 129.337424 
L 278.87601 129.039293 
L 280.992774 128.943722 
L 287.343065 128.975623 
L 289.459829 128.88814 
L 291.576592 129.018166 
L 295.104532 129.548362 
L 299.338059 130.439112 
L 303.571587 131.295108 
L 307.099527 131.731832 
L 310.627466 131.915584 
L 314.372145 131.838282 
L 322.223128 131.505355 
L 328.807824 131.50088 
L 336.152293 131.214949 
L 336.40555 131.223684 
L 336.40555 128.318446 
L 345.091239 128.178535 
L 363.331185 127.828827 
L 370.279735 127.955256 
L 376.359717 128.279041 
L 383.308268 128.890744 
L 399.811076 130.525899 
L 405.022489 130.500488 
L 408.496764 130.765238 
L 418.051022 131.793347 
L 422.393866 131.920901 
L 422.393866 131.920901 
" clip-path="url(#p17b662e220)" style="fill: none; stroke: #000000; stroke-linecap: square"/>
   </g>
   <g id="line2d_18">
    <path d="M 36.403365 130.525025 
L 38.399069 130.442869 
L 41.891551 130.008932 
L 52.867923 128.479055 
L 58.356109 128.040298 
L 70.330333 127.246822 
L 81.306705 125.685628 
L 84.799187 125.503653 
L 90.832751 125.521905 
L 94.189892 125.718857 
L 101.463697 126.274605 
L 113.21369 126.431596 
L 145.7485 126.28775 
L 155.372287 126.449411 
L 173.100315 127.113246 
L 178.165465 127.415286 
L 179.685011 127.458391 
L 192.347888 128.283389 
L 195.386978 128.071289 
L 202.984704 127.458391 
L 207.036825 127.287552 
L 217.673641 126.722168 
L 236.414699 126.290955 
L 252.063669 126.293035 
L 265.469839 126.518507 
L 272.525719 126.824465 
L 275.34807 127.128538 
L 283.109537 128.237505 
L 294.398944 128.9745 
L 298.632472 129.578192 
L 301.454823 129.900046 
L 304.982763 130.070858 
L 312.346084 130.14943 
L 318.93078 129.994514 
L 323.489416 129.95635 
L 329.061082 130.200654 
L 336.40555 130.525025 
L 336.40555 128.297837 
L 340.748395 128.197065 
L 361.594047 127.259084 
L 371.148304 127.228299 
L 381.57113 127.40661 
L 389.38825 127.740201 
L 398.942507 128.41208 
L 403.285351 128.816076 
L 407.628196 129.499751 
L 410.233902 129.858585 
L 413.708177 130.060289 
L 421.525297 130.151696 
L 422.393866 130.152739 
L 422.393866 130.152739 
" clip-path="url(#p17b662e220)" style="fill: none; stroke: #000000; stroke-linecap: square"/>
   </g>
   <g id="line2d_19">
    <path d="M 36.403365 127.211316 
L 43.388329 127.328213 
L 47.379737 127.287542 
L 50.872219 127.035158 
L 54.863627 126.510014 
L 66.837851 124.779387 
L 74.321741 124.044657 
L 85.298113 123.134353 
L 88.594657 123.193631 
L 95.308939 123.597671 
L 99.225603 124.073061 
L 105.380361 124.905552 
L 108.177979 124.989611 
L 111.53512 124.823979 
L 117.130355 124.533918 
L 120.487496 124.651825 
L 125.523207 125.126635 
L 133.916059 125.92741 
L 138.951771 126.173492 
L 143.72244 126.186374 
L 150.307136 126.053679 
L 164.489558 126.487182 
L 168.541679 126.661897 
L 179.178496 127.352213 
L 181.711071 127.209358 
L 184.750161 127.285058 
L 191.841372 127.567103 
L 195.893493 127.402842 
L 200.452129 127.206912 
L 202.984704 127.305569 
L 204.504249 127.354466 
L 219.699702 126.478446 
L 226.284398 126.379155 
L 236.414699 126.085677 
L 241.47985 126.216456 
L 241.47985 126.216456 
L 246.418966 126.061707 
L 251.358081 125.563139 
L 257.708372 124.898846 
L 261.236312 124.765082 
L 264.058663 124.860454 
L 267.586603 125.234056 
L 272.525719 126.052249 
L 276.053658 126.533227 
L 280.287186 126.790363 
L 286.637477 126.947456 
L 290.871004 126.913081 
L 293.693356 127.601988 
L 296.515708 128.25915 
L 299.338059 128.642947 
L 302.160411 128.785771 
L 305.688351 128.721963 
L 309.921878 128.387924 
L 312.092827 128.247558 
L 316.651462 128.166963 
L 326.021991 127.824847 
L 331.3404 127.520199 
L 336.40555 127.211316 
L 336.40555 127.56956 
L 339.879826 127.469058 
L 343.354101 127.177585 
L 347.696945 126.58714 
L 357.251203 125.101397 
L 360.725478 124.914047 
L 365.068322 124.972857 
L 372.016873 125.347822 
L 399.811076 127.118668 
L 403.285351 127.318283 
L 412.839609 128.573118 
L 416.313884 128.633403 
L 419.788159 128.466307 
L 422.393866 128.243084 
L 422.393866 128.243084 
" clip-path="url(#p17b662e220)" style="fill: none; stroke: #000000; stroke-linecap: square"/>
   </g>
   <g id="line2d_20">
    <path d="M 36.403365 124.579577 
L 39.895847 124.846567 
L 44.386181 125.076537 
L 48.876515 125.101053 
L 53.366849 124.919024 
L 58.356109 124.479409 
L 63.844295 123.760094 
L 74.820667 122.256999 
L 78.812075 121.96609 
L 82.304557 121.921071 
L 89.713704 122.122625 
L 95.308939 122.38351 
L 99.785126 122.296632 
L 105.939885 122.195402 
L 110.975596 122.373726 
L 116.011308 122.507578 
L 118.808925 122.337291 
L 122.166066 121.862295 
L 128.320824 120.670055 
L 133.916059 119.677273 
L 137.832724 119.226036 
L 141.189865 119.092213 
L 141.189865 119.092213 
L 147.774561 119.080448 
L 150.307136 119.337951 
L 153.346227 119.891685 
L 160.437438 121.268189 
L 166.515619 122.404824 
L 172.5938 123.650045 
L 174.61986 123.848854 
L 176.64592 123.829064 
L 178.671981 123.587757 
L 181.204556 123.060211 
L 182.724101 122.795804 
L 186.776222 123.250994 
L 190.321827 123.439211 
L 193.867433 123.386561 
L 197.413038 123.106042 
L 200.452129 122.81255 
L 203.997734 123.587757 
L 206.023795 123.829064 
L 208.049855 123.848854 
L 210.075915 123.650045 
L 213.115006 123.076736 
L 220.206217 121.616432 
L 228.310458 120.104337 
L 232.362579 119.337951 
L 234.895154 119.080448 
L 237.934245 119.035071 
L 244.302202 119.215454 
L 247.830141 119.628484 
L 253.474845 120.551592 
L 266.881015 122.806031 
L 286.637477 125.870241 
L 290.165417 126.557979 
L 291.576592 126.542808 
L 294.398944 126.399093 
L 297.221296 126.527322 
L 302.160411 127.093293 
L 311.839569 128.227868 
L 318.171008 128.004139 
L 320.703583 127.763585 
L 323.995931 127.196623 
L 328.554567 126.174676 
L 335.139263 124.662455 
L 336.40555 124.579577 
L 336.40555 123.449356 
L 341.616963 123.331433 
L 350.302652 123.050586 
L 355.514065 123.002337 
L 358.119771 122.797482 
L 361.594047 122.283394 
L 367.674029 121.295196 
L 371.148304 121.060065 
L 375.491148 121.012279 
L 379.833993 121.229022 
L 383.308268 121.605979 
L 387.651112 122.329296 
L 391.993956 123.314212 
L 396.336801 124.524472 
L 401.548214 126.042045 
L 403.285351 126.380343 
L 405.891058 126.604673 
L 411.102471 127.000346 
L 422.393866 128.232779 
L 422.393866 128.232779 
" clip-path="url(#p17b662e220)" style="fill: none; stroke: #000000; stroke-linecap: square"/>
   </g>
   <g id="line2d_21">
    <path d="M 36.403365 124.344043 
L 38.399069 124.151339 
L 43.388329 123.376533 
L 60.351813 120.565089 
L 65.341073 120.061371 
L 69.332481 119.861977 
L 73.323889 119.876958 
L 78.313149 120.156251 
L 84.300261 120.47297 
L 87.47561 120.425203 
L 90.273227 120.112672 
L 100.34465 118.782578 
L 104.261314 118.585481 
L 114.892261 118.230924 
L 124.40416 117.507037 
L 131.677965 117.083108 
L 138.951771 116.90729 
L 142.70941 116.970499 
L 146.255016 117.162364 
L 157.904862 118.212785 
L 161.956983 118.832826 
L 171.580769 120.672767 
L 181.204556 122.571798 
L 182.724101 122.707308 
L 190.828342 123.360537 
L 194.373948 123.271509 
L 197.919553 122.947762 
L 204.504249 122.045308 
L 211.595461 120.568337 
L 220.206217 118.924017 
L 224.764853 118.212785 
L 229.323488 117.770974 
L 240.46682 116.960601 
L 244.302202 116.808334 
L 247.124553 116.731098 
L 252.769257 117.153993 
L 261.236312 117.779385 
L 271.820131 118.37207 
L 274.642482 118.81776 
L 278.170422 119.646571 
L 282.403949 120.917704 
L 289.459829 123.119409 
L 291.576592 123.558412 
L 293.693356 123.739942 
L 295.81012 123.620038 
L 298.632472 123.128912 
L 308.510702 121.084278 
L 310.627466 120.915146 
L 316.398205 120.920272 
L 318.93078 121.119692 
L 321.463356 121.551925 
L 325.515476 122.538279 
L 329.820854 123.503822 
L 333.619717 124.128494 
L 336.152293 124.337329 
L 336.40555 124.344043 
L 336.40555 123.363094 
L 341.616963 123.259742 
L 348.565514 122.889919 
L 356.382634 122.16121 
L 367.674029 120.922367 
L 376.359717 119.629229 
L 379.833993 119.375047 
L 382.439699 119.398187 
L 385.045406 119.658458 
L 388.519681 120.311982 
L 393.731094 121.634315 
L 398.942507 122.929266 
L 401.548214 123.384195 
L 404.15392 123.58234 
L 406.759627 123.452501 
L 409.365333 123.043541 
L 419.788159 121.036362 
L 422.393866 120.90329 
L 422.393866 120.90329 
" clip-path="url(#p17b662e220)" style="fill: none; stroke: #000000; stroke-linecap: square"/>
   </g>
   <g id="line2d_22">
    <path d="M 36.403365 122.854655 
L 39.895847 122.749217 
L 43.887255 122.375268 
L 48.377589 121.713606 
L 55.362553 120.414942 
L 68.334629 117.968113 
L 74.820667 116.982243 
L 79.809927 116.446097 
L 83.801335 116.225043 
L 88.035133 116.218851 
L 93.630368 116.446914 
L 102.02322 116.842833 
L 106.499408 116.776407 
L 119.927972 116.406653 
L 129.999395 116.459885 
L 141.189865 116.623269 
L 141.189865 116.623269 
L 141.69638 116.881685 
L 146.761531 117.007875 
L 150.813651 117.33602 
L 159.424408 118.335128 
L 164.996073 119.192292 
L 169.554709 120.110083 
L 178.671981 122.032784 
L 182.724101 122.650211 
L 189.815312 121.251961 
L 191.841372 121.197505 
L 193.867433 121.35782 
L 196.400008 121.806681 
L 200.452129 122.601612 
L 205.51728 121.75581 
L 210.58243 120.682555 
L 217.167126 119.283968 
L 222.232277 118.472955 
L 228.816973 117.669137 
L 235.401669 117.036752 
L 239.45379 116.89687 
L 241.47985 116.880576 
L 241.47985 116.880576 
L 242.185438 116.547276 
L 247.830141 116.541788 
L 254.886021 116.06774 
L 259.119548 115.996309 
L 263.353076 116.141081 
L 268.997779 116.605746 
L 273.936894 116.955784 
L 278.170422 117.004108 
L 283.815125 116.819222 
L 292.28218 116.523717 
L 296.515708 116.639768 
L 300.749235 116.992136 
L 310.627466 118.001763 
L 314.87866 118.158487 
L 317.91775 118.524311 
L 321.210098 119.14375 
L 325.768734 120.250794 
L 332.606687 122.180384 
L 335.139263 122.756952 
L 336.40555 122.854655 
L 336.40555 121.190619 
L 342.485532 121.325935 
L 346.828376 121.357062 
L 349.434083 121.190887 
L 352.908358 120.732085 
L 358.98834 119.60481 
L 365.068322 118.514408 
L 369.411166 117.965588 
L 372.885442 117.730806 
L 377.228286 117.697034 
L 385.045406 117.794879 
L 405.022489 117.312595 
L 411.97104 117.533457 
L 422.393866 118.010218 
L 422.393866 118.010218 
" clip-path="url(#p17b662e220)" style="fill: none; stroke: #000000; stroke-linecap: square"/>
   </g>
   <g id="line2d_23">
    <path d="M 36.403365 107.906572 
L 41.392625 108.014778 
L 46.381885 108.330174 
L 51.870071 108.895891 
L 58.356109 109.792218 
L 72.326037 111.820185 
L 77.315297 112.256266 
L 82.304557 112.46552 
L 88.594657 112.497464 
L 102.582744 112.318795 
L 117.130355 111.969344 
L 126.082731 111.508058 
L 138.951771 110.80485 
L 141.189865 110.779263 
L 141.189865 110.779263 
L 141.69638 110.571701 
L 144.228955 110.7727 
L 147.268046 111.263772 
L 158.917892 113.578757 
L 169.554709 115.717648 
L 180.698041 117.468147 
L 185.256677 117.989291 
L 189.308797 118.224007 
L 193.360918 118.224007 
L 197.413038 117.989291 
L 201.465159 117.537464 
L 208.049855 116.534897 
L 217.167126 114.978878 
L 238.44076 110.7727 
L 240.973335 110.571701 
L 241.47985 110.565475 
L 241.47985 110.565475 
L 242.185438 110.839899 
L 249.946905 110.975616 
L 268.292191 111.491711 
L 289.459829 111.10073 
L 295.104532 110.840986 
L 309.921878 109.923745 
L 315.385175 109.764741 
L 319.437295 109.362587 
L 331.087142 108.03242 
L 335.39252 107.909416 
L 336.40555 107.906572 
L 336.40555 118.25436 
L 340.748395 118.160876 
L 345.959808 117.809841 
L 351.171221 117.208237 
L 356.382634 116.382148 
L 364.199753 114.888951 
L 376.359717 112.564639 
L 383.308268 111.459413 
L 389.38825 110.71108 
L 395.468232 110.203231 
L 401.548214 109.933016 
L 408.496764 109.84943 
L 422.393866 109.913331 
L 422.393866 109.913331 
" clip-path="url(#p17b662e220)" style="fill: none; stroke: #000000; stroke-linecap: square"/>
   </g>
   <g id="line2d_24">
    <path d="M 36.403365 98.259658 
L 39.895847 98.355315 
L 43.887255 98.699486 
L 48.377589 99.328628 
L 53.865775 100.331986 
L 61.848591 102.044144 
L 73.822815 104.650318 
L 78.313149 105.358123 
L 81.805631 105.703813 
L 85.298113 105.842206 
L 89.15418 105.969696 
L 94.189892 106.446882 
L 100.904173 107.05796 
L 106.499408 107.333444 
L 116.570831 107.526514 
L 124.963684 107.810108 
L 141.69638 108.550537 
L 144.228955 108.390521 
L 148.281076 107.86184 
L 163.476528 105.646168 
L 170.061224 105.121697 
L 174.113345 105.015354 
L 178.671981 105.137076 
L 191.841372 105.665457 
L 196.906523 105.525766 
L 209.062885 105.016332 
L 213.115006 105.150159 
L 218.686672 105.597775 
L 224.258337 106.226797 
L 229.830003 107.120355 
L 236.921214 108.21693 
L 239.960305 108.511371 
L 242.891026 108.551431 
L 249.946905 108.407866 
L 258.41396 107.994716 
L 266.881015 107.355323 
L 273.231306 106.665029 
L 278.87601 105.832137 
L 285.226301 104.664845 
L 297.221296 102.40035 
L 302.160411 101.717824 
L 306.393939 101.339347 
L 310.627466 101.183097 
L 313.865629 101.068468 
L 316.90472 100.699053 
L 332.606687 98.459915 
L 335.39252 98.26881 
L 336.40555 98.259658 
L 336.40555 105.666673 
L 345.091239 105.542438 
L 362.462616 105.200868 
L 372.885442 105.000818 
L 378.965424 104.626373 
L 385.045406 103.993102 
L 405.022489 101.595915 
L 410.233902 101.308463 
L 417.182453 101.186352 
L 422.393866 101.179811 
L 422.393866 101.179811 
" clip-path="url(#p17b662e220)" style="fill: none; stroke: #000000; stroke-linecap: square"/>
   </g>
   <g id="line2d_25">
    <path d="M 36.403365 95.966946 
L 39.396921 96.077776 
L 44.386181 96.508742 
L 50.373293 97.250148 
L 57.358257 98.348973 
L 75.818519 101.38732 
L 80.308853 101.829973 
L 84.300261 102.018697 
L 87.47561 101.988762 
L 90.273227 101.731933 
L 94.189892 101.120398 
L 109.856549 98.396077 
L 115.451784 97.755084 
L 121.606543 97.281714 
L 128.880348 96.960454 
L 137.832724 96.799798 
L 147.268046 96.633811 
L 152.839712 96.236131 
L 163.983043 95.265134 
L 167.022134 95.292864 
L 170.567739 95.573836 
L 184.750161 96.958674 
L 189.815312 97.08252 
L 196.400008 97.017939 
L 200.958644 96.768207 
L 206.53031 96.209995 
L 215.141066 95.319458 
L 218.180157 95.253723 
L 221.725762 95.439165 
L 228.310458 96.088845 
L 233.882124 96.549696 
L 239.45379 96.770265 
L 252.769257 97.064195 
L 269.703367 97.721301 
L 275.34807 97.645265 
L 280.287186 97.366171 
L 286.637477 96.756201 
L 296.515708 95.746579 
L 300.749235 95.575766 
L 308.510702 95.572377 
L 326.781764 95.741356 
L 336.40555 95.966946 
L 336.40555 97.087819 
L 353.776927 96.982332 
L 365.068322 96.831198 
L 368.542598 97.017525 
L 379.833993 97.869037 
L 384.176837 97.8557 
L 388.519681 97.610734 
L 393.731094 97.089299 
L 405.891058 95.737023 
L 410.233902 95.554982 
L 418.051022 95.563599 
L 422.393866 95.577713 
L 422.393866 95.577713 
" clip-path="url(#p17b662e220)" style="fill: none; stroke: #000000; stroke-linecap: square"/>
   </g>
   <g id="line2d_26">
    <path d="M 36.403365 95.597367 
L 40.394773 95.471165 
L 51.870071 95.040101 
L 60.850739 94.947265 
L 71.827111 95.077569 
L 86.356563 95.230456 
L 93.070845 95.105776 
L 100.34465 94.746162 
L 108.177979 94.134025 
L 121.047019 92.84373 
L 129.439871 92.11937 
L 135.59463 91.793581 
L 141.69638 91.695531 
L 146.255016 91.83261 
L 152.333196 92.251415 
L 158.917892 92.907593 
L 163.983043 93.379248 
L 167.022134 93.416154 
L 170.567739 93.200562 
L 187.282737 91.888383 
L 192.347888 91.812904 
L 197.413038 91.982217 
L 203.491219 92.414851 
L 216.154096 93.427246 
L 219.193187 93.349485 
L 223.245307 92.96416 
L 231.349549 92.169347 
L 237.934245 91.764202 
L 242.185438 91.695435 
L 248.535729 91.829834 
L 255.591609 92.208426 
L 265.469839 92.988233 
L 278.170422 93.965865 
L 288.048653 94.485346 
L 295.104532 94.660173 
L 300.043647 94.550385 
L 310.627466 94.159116 
L 317.411235 94.249238 
L 323.489416 94.51475 
L 328.048052 94.943196 
L 334.37949 95.557038 
L 336.40555 95.597367 
L 336.40555 91.807679 
L 340.748395 91.926072 
L 345.091239 92.268613 
L 350.302652 92.924722 
L 358.119771 94.203271 
L 364.199753 95.121885 
L 367.674029 95.393468 
L 371.148304 95.418678 
L 378.096855 95.154065 
L 388.519681 94.772283 
L 397.205369 94.696893 
L 408.496764 94.630269 
L 422.393866 94.157075 
L 422.393866 94.157075 
" clip-path="url(#p17b662e220)" style="fill: none; stroke: #000000; stroke-linecap: square"/>
   </g>
   <g id="line2d_27">
    <path d="M 36.403365 81.432438 
L 43.887255 81.32669 
L 52.368997 80.977639 
L 79.809927 79.672748 
L 87.47561 79.656772 
L 93.070845 79.944657 
L 111.53512 80.97317 
L 123.285113 81.405063 
L 137.2732 81.65575 
L 153.346227 81.6805 
L 168.035164 81.475911 
L 221.219247 81.562423 
L 238.947275 81.739538 
L 300.749235 81.543514 
L 311.839569 81.877801 
L 317.411235 81.735999 
L 325.515476 81.539667 
L 374.622579 81.260949 
L 405.891058 81.330867 
L 422.393866 81.879006 
L 422.393866 81.879006 
" clip-path="url(#p17b662e220)" style="fill: none; stroke: #000000; stroke-linecap: square"/>
   </g>
   <g id="line2d_28">
    <path d="M 36.403365 80.584655 
L 46.381885 80.460398 
L 58.356109 80.074791 
L 71.328185 79.723746 
L 77.814223 79.493462 
L 86.356563 79.05 
L 102.582744 78.983661 
L 120.487496 79.427072 
L 136.154153 79.766326 
L 141.189865 79.787207 
L 141.189865 79.787207 
L 141.69638 81.619976 
L 157.398347 81.505088 
L 174.113345 81.403653 
L 236.921214 81.591035 
L 241.47985 81.62003 
L 241.47985 81.62003 
L 242.185438 79.134736 
L 250.652493 78.997792 
L 258.41396 78.647545 
L 271.114543 77.994171 
L 274.642482 78.079492 
L 278.87601 78.445179 
L 286.637477 79.42615 
L 295.81012 80.557141 
L 300.749235 80.937051 
L 305.688351 81.062797 
L 314.87866 81.036661 
L 334.126233 80.594209 
L 336.40555 80.584655 
L 336.40555 81.384532 
L 345.091239 81.291228 
L 351.171221 80.924763 
L 358.98834 80.225756 
L 374.622579 78.737137 
L 378.965424 78.543632 
L 383.308268 78.577184 
L 388.519681 78.872816 
L 397.205369 79.640448 
L 409.365333 80.713401 
L 415.445315 80.98979 
L 422.393866 81.085021 
L 422.393866 81.085021 
" clip-path="url(#p17b662e220)" style="fill: none; stroke: #000000; stroke-linecap: square"/>
   </g>
   <g id="line2d_29">
    <path d="M 36.403365 73.99083 
L 42.889403 74.103201 
L 49.375441 74.439542 
L 56.859331 75.060538 
L 64.343221 75.906904 
L 83.801335 78.295808 
L 86.356563 78.360315 
L 90.832751 78.24116 
L 95.868462 77.868175 
L 103.701791 77.013536 
L 122.166066 74.906264 
L 129.439871 74.351466 
L 136.154153 74.06722 
L 141.189865 74.003333 
L 141.189865 74.003333 
L 141.69638 72.883564 
L 158.411377 73.100744 
L 167.022134 73.503187 
L 188.295767 74.317516 
L 200.958644 74.198967 
L 220.206217 73.282879 
L 226.790913 73.050831 
L 241.47985 72.88235 
L 241.47985 72.88235 
L 242.185438 74.494948 
L 248.535729 74.628748 
L 254.886021 74.973643 
L 262.647488 75.628326 
L 271.114543 76.343528 
L 274.642482 76.423161 
L 278.87601 76.276798 
L 287.343065 75.686658 
L 298.632472 74.945324 
L 306.393939 74.652675 
L 314.625402 74.591667 
L 319.184038 74.45507 
L 329.567597 73.956415 
L 336.40555 73.99083 
L 336.40555 74.314456 
L 346.828376 74.427433 
L 357.251203 74.768544 
L 365.936891 75.278238 
L 377.228286 75.998291 
L 381.57113 76.031415 
L 385.913974 75.847854 
L 405.891058 74.669335 
L 414.576746 74.589408 
L 422.393866 74.597723 
L 422.393866 74.597723 
" clip-path="url(#p17b662e220)" style="fill: none; stroke: #000000; stroke-linecap: square"/>
   </g>
   <g id="line2d_30">
    <path d="M 36.403365 39.608844 
L 47.379737 39.721919 
L 58.855035 40.066973 
L 81.306705 40.848069 
L 90.273227 40.841787 
L 98.666079 40.607127 
L 108.737502 40.095597 
L 136.713677 38.49759 
L 141.189865 38.451058 
L 141.189865 38.451058 
L 141.69638 31.27574 
L 145.241985 31.351744 
L 149.800621 31.36762 
L 152.333196 31.473842 
L 181.711071 33.395495 
L 188.802282 33.541264 
L 198.426068 33.474254 
L 206.53031 33.156523 
L 213.115006 32.698684 
L 232.869094 31.36762 
L 238.947275 31.295056 
L 241.47985 31.277402 
L 241.47985 31.277402 
L 242.185438 39.71506 
L 249.946905 39.857406 
L 259.825136 40.30169 
L 272.525719 40.87223 
L 279.581598 40.96282 
L 287.343065 40.826705 
L 311.333054 40.196581 
L 311.333054 40.196581 
L 316.144947 40.085151 
L 329.314339 39.60718 
L 336.40555 39.608844 
L 336.40555 33.546866 
L 340.748395 33.656311 
L 345.091239 34.055584 
L 351.171221 34.891235 
L 360.725478 36.480245 
L 372.885442 38.473514 
L 378.965424 39.238482 
L 384.176837 39.689738 
L 390.256819 39.973384 
L 398.073938 40.071509 
L 422.393866 40.196581 
L 422.393866 40.196581 
" clip-path="url(#p17b662e220)" style="fill: none; stroke: #000000; stroke-linecap: square"/>
   </g>
   <g id="line2d_31">
    <path d="M 36.403365 24.805922 
L 38.399069 24.919662 
L 41.392625 25.394239 
L 46.880811 26.525388 
L 58.356109 28.929803 
L 64.842147 30.020864 
L 71.328185 30.88436 
L 76.816371 31.409803 
L 81.805631 31.686828 
L 86.916086 31.755542 
L 112.094643 31.606846 
L 123.285113 31.388268 
L 133.916059 31.204181 
L 153.346227 31.354315 
L 159.930923 31.932292 
L 181.204556 33.204129 
L 189.308797 33.379787 
L 197.919553 33.313597 
L 207.036825 32.964481 
L 213.621521 32.480599 
L 218.686672 32.12604 
L 224.764853 31.779885 
L 231.856064 31.300468 
L 249.946905 31.100304 
L 266.881015 30.464508 
L 274.642482 29.955977 
L 283.815125 29.108361 
L 298.632472 27.686756 
L 305.688351 27.240703 
L 311.333054 27.103789 
L 311.333054 27.103789 
L 314.372145 26.996438 
L 318.171008 26.624793 
L 333.872975 24.857192 
L 336.152293 24.798322 
L 336.40555 24.805922 
L 336.40555 33.384806 
L 345.091239 33.304887 
L 352.908358 32.932759 
L 361.594047 32.286442 
L 372.016873 31.282999 
L 382.439699 30.066343 
L 391.993956 28.712637 
L 399.811076 27.642606 
L 404.15392 27.2447 
L 408.496764 27.053487 
L 414.576746 27.039409 
L 422.393866 27.103789 
L 422.393866 27.103789 
" clip-path="url(#p17b662e220)" style="fill: none; stroke: #000000; stroke-linecap: square"/>
   </g>
   <g id="line2d_32">
    <path d="M 36.403365 24.409987 
L 49.375441 24.688097 
L 67.835703 25.341169 
L 75.319593 25.326359 
L 88.035133 25.23887 
L 92.511321 25.551969 
L 104.261314 26.481974 
L 118.808925 27.442855 
L 126.082731 28.267393 
L 133.356536 29.060738 
L 137.832724 29.318759 
L 141.189865 29.373897 
L 141.189865 29.373897 
L 141.69638 31.074642 
L 148.787591 30.82945 
L 151.826681 31.085173 
L 153.852742 31.191946 
L 178.165465 31.068011 
L 185.256677 31.098899 
L 193.867433 31.00907 
L 202.478189 31.104594 
L 213.621521 31.025677 
L 230.336518 31.136524 
L 234.388639 30.813942 
L 237.427729 30.879132 
L 241.47985 31.084632 
L 241.47985 31.084632 
L 242.185438 29.325066 
L 247.830141 29.190348 
L 253.474845 28.837934 
L 263.353076 27.921943 
L 271.820131 27.238292 
L 280.287186 26.788616 
L 307.099527 25.725319 
L 313.865629 25.606368 
L 317.411235 25.179722 
L 321.716613 24.711749 
L 325.515476 24.566007 
L 336.40555 24.409987 
L 336.40555 30.978117 
L 340.748395 30.853818 
L 345.959808 30.456341 
L 354.645496 29.519241 
L 368.542598 28.010299 
L 378.965424 27.158365 
L 402.416782 25.529727 
L 407.628196 25.372207 
L 412.839609 25.463079 
L 422.393866 25.72194 
L 422.393866 25.72194 
" clip-path="url(#p17b662e220)" style="fill: none; stroke: #000000; stroke-linecap: square"/>
   </g>
   <g id="line2d_33">
    <path d="M 36.403365 23.899151 
L 38.897995 23.766663 
L 51.870071 22.655346 
L 57.857183 22.46323 
L 63.844295 22.509883 
L 73.822815 22.887442 
L 82.304557 23.096461 
L 88.035133 23.061106 
L 91.951798 22.754222 
L 97.547033 22.067491 
L 105.380361 20.868993 
L 117.130355 19.005243 
L 120.487496 18.7109 
L 124.40416 18.608174 
L 132.237489 18.703515 
L 146.761531 18.83534 
L 149.294106 18.636589 
L 151.826681 18.227541 
L 155.878802 17.290294 
L 167.022134 14.428219 
L 168.541679 14.026225 
L 170.567739 13.971348 
L 175.63289 14.004602 
L 186.269707 14.328575 
L 193.360918 14.240349 
L 200.452129 14.332161 
L 207.036825 14.004602 
L 211.088945 13.959434 
L 214.128036 14.026225 
L 232.362579 18.49678 
L 234.895154 18.781178 
L 237.934245 18.863317 
L 254.180433 18.633681 
L 261.236312 18.521247 
L 262.647488 18.702306 
L 269.703367 20.193312 
L 275.34807 21.228688 
L 280.287186 21.90692 
L 285.226301 22.357687 
L 290.871004 22.625712 
L 296.515708 22.665218 
L 302.865999 22.468327 
L 310.627466 22.209439 
L 314.87866 22.293759 
L 323.995931 22.813074 
L 328.807824 23.292631 
L 334.632748 23.904862 
L 336.40555 23.899151 
L 336.40555 14.214821 
L 340.748395 14.311924 
L 345.959808 14.675441 
L 351.171221 15.277196 
L 357.251203 16.206834 
L 384.176837 20.643694 
L 391.993956 21.544429 
L 399.811076 22.23365 
L 405.022489 22.51828 
L 409.365333 22.557687 
L 416.313884 22.332767 
L 422.393866 22.207006 
L 422.393866 22.207006 
" clip-path="url(#p17b662e220)" style="fill: none; stroke: #000000; stroke-linecap: square"/>
   </g>
   <g id="line2d_34">
    <path d="M 36.403365 17.667126 
L 41.891551 17.543831 
L 59.353961 16.890817 
L 65.341073 17.035539 
L 75.319593 17.570388 
L 82.803483 17.848504 
L 89.15418 17.849155 
L 112.654167 17.568051 
L 118.249402 17.495686 
L 122.166066 17.224993 
L 135.035106 16.107646 
L 140.070818 15.95802 
L 141.189865 15.952845 
L 141.189865 15.952845 
L 141.69638 18.78831 
L 145.241985 18.672262 
L 149.294106 18.304339 
L 153.346227 17.715993 
L 156.891832 16.977484 
L 161.956983 15.666767 
L 168.035164 14.023053 
L 169.048194 13.875239 
L 175.126375 12.41763 
L 181.204556 11.200561 
L 185.256677 10.596213 
L 188.802282 10.280124 
L 191.841372 10.212611 
L 194.880463 10.346233 
L 198.426068 10.726241 
L 202.478189 11.382497 
L 208.049855 12.529896 
L 217.167126 14.67614 
L 226.284398 17.095573 
L 229.830003 17.80342 
L 233.882124 18.362281 
L 237.934245 18.701438 
L 241.47985 18.789547 
L 241.47985 18.789547 
L 242.185438 15.580801 
L 245.713378 15.726248 
L 249.241317 16.069373 
L 253.474845 16.70594 
L 259.119548 17.811112 
L 261.236312 18.20169 
L 262.647488 18.290668 
L 267.586603 18.162017 
L 288.048653 17.501613 
L 294.398944 17.620673 
L 302.865999 18.04765 
L 309.921878 18.319888 
L 315.638432 18.27206 
L 320.703583 18.005285 
L 326.528506 17.720331 
L 333.872975 17.67861 
L 336.40555 17.667126 
L 336.40555 10.209763 
L 340.748395 10.303437 
L 345.091239 10.592039 
L 350.302652 11.208314 
L 356.382634 12.177352 
L 374.622579 15.280497 
L 379.833993 15.895662 
L 385.045406 16.313283 
L 391.993956 16.625147 
L 402.416782 17.063787 
L 410.233902 17.675165 
L 417.182453 18.18668 
L 421.525297 18.325224 
L 422.393866 18.329347 
L 422.393866 18.329347 
" clip-path="url(#p17b662e220)" style="fill: none; stroke: #000000; stroke-linecap: square"/>
   </g>
   <g id="line2d_35">
    <path d="M 36.403365 11.252478 
L 44.885107 11.380563 
L 65.839999 11.767176 
L 81.306705 11.920689 
L 100.904173 12.056062 
L 110.416073 12.405054 
L 121.047019 12.78541 
L 126.642254 12.771646 
L 134.475583 12.486814 
L 141.189865 12.333844 
L 141.189865 12.333844 
L 141.69638 13.242441 
L 146.761531 13.357756 
L 152.333196 13.502268 
L 159.424408 13.559608 
L 168.541679 13.853485 
L 177.65895 11.791709 
L 182.217586 10.932672 
L 186.269707 10.405095 
L 189.815312 10.162207 
L 192.854403 10.162207 
L 196.400008 10.405095 
L 200.452129 10.932672 
L 204.504249 11.684974 
L 213.115006 13.611825 
L 214.634551 13.943951 
L 216.660611 13.920973 
L 229.323488 13.493857 
L 233.882124 13.446889 
L 241.47985 13.241845 
L 241.47985 13.241845 
L 242.185438 11.927638 
L 248.535729 12.059929 
L 258.41396 12.532222 
L 272.525719 13.17795 
L 279.581598 13.288667 
L 284.520713 13.164528 
L 289.459829 12.819748 
L 295.81012 12.116159 
L 304.277175 11.17731 
L 308.510702 10.917953 
L 312.599342 10.888506 
L 316.651462 11.146805 
L 319.94381 11.259575 
L 323.489416 11.125497 
L 327.794794 10.987027 
L 331.593657 11.119446 
L 336.40555 11.252478 
L 336.40555 10.136582 
L 340.748395 10.240338 
L 346.828376 10.643606 
L 359.856909 11.571974 
L 366.80546 11.778061 
L 378.096855 11.820849 
L 402.416782 11.780777 
L 409.365333 11.415462 
L 418.91959 10.91555 
L 422.393866 10.866144 
L 422.393866 10.866144 
" clip-path="url(#p17b662e220)" style="fill: none; stroke: #000000; stroke-linecap: square"/>
   </g>
   <g id="line2d_36">
    <path d="M 36.403365 159.99976 
L 36.403365 3.00024 
" clip-path="url(#p17b662e220)" style="fill: none; stroke: #000000; stroke-width: 0.5; stroke-linecap: square"/>
   </g>
   <g id="line2d_37">
    <path d="M 85.797088 159.99976 
L 85.797088 3.00024 
" clip-path="url(#p17b662e220)" style="fill: none; stroke: #000000; stroke-width: 0.5; stroke-linecap: square"/>
   </g>
   <g id="line2d_38">
    <path d="M 141.189593 159.99976 
L 141.189593 3.00024 
" clip-path="url(#p17b662e220)" style="fill: none; stroke: #000000; stroke-width: 0.5; stroke-linecap: square"/>
   </g>
   <g id="line2d_39">
    <path d="M 191.335277 159.99976 
L 191.335277 3.00024 
" clip-path="url(#p17b662e220)" style="fill: none; stroke: #000000; stroke-width: 0.5; stroke-linecap: square"/>
   </g>
   <g id="line2d_40">
    <path d="M 241.480021 159.99976 
L 241.480021 3.00024 
" clip-path="url(#p17b662e220)" style="fill: none; stroke: #000000; stroke-width: 0.5; stroke-linecap: square"/>
   </g>
   <g id="line2d_41">
    <path d="M 311.333439 159.99976 
L 311.333439 3.00024 
" clip-path="url(#p17b662e220)" style="fill: none; stroke: #000000; stroke-width: 0.5; stroke-linecap: square"/>
   </g>
   <g id="line2d_42">
    <path d="M 336.405342 159.99976 
L 336.405342 3.00024 
" clip-path="url(#p17b662e220)" style="fill: none; stroke: #000000; stroke-width: 0.5; stroke-linecap: square"/>
   </g>
   <g id="line2d_43">
    <path d="M 422.39351 159.99976 
L 422.39351 3.00024 
" clip-path="url(#p17b662e220)" style="fill: none; stroke: #000000; stroke-width: 0.5; stroke-linecap: square"/>
   </g>
   <g id="line2d_44">
    <path d="M 36.403365 150.769057 
L 422.393866 150.769057 
" clip-path="url(#p17b662e220)" style="fill: none; stroke-dasharray: 1.85,0.8; stroke-dashoffset: 0; stroke: #0000ff; stroke-width: 0.5"/>
   </g>
   <g id="patch_3">
    <path d="M 36.403365 159.99976 
L 36.403365 3.00024 
" style="fill: none; stroke: #000000; stroke-width: 0.8; stroke-linejoin: miter; stroke-linecap: square"/>
   </g>
   <g id="patch_4">
    <path d="M 422.393866 159.99976 
L 422.393866 3.00024 
" style="fill: none; stroke: #000000; stroke-width: 0.8; stroke-linejoin: miter; stroke-linecap: square"/>
   </g>
   <g id="patch_5">
    <path d="M 36.403365 159.99976 
L 422.393866 159.99976 
" style="fill: none; stroke: #000000; stroke-width: 0.8; stroke-linejoin: miter; stroke-linecap: square"/>
   </g>
   <g id="patch_6">
    <path d="M 36.403365 3.00024 
L 422.393866 3.00024 
" style="fill: none; stroke: #000000; stroke-width: 0.8; stroke-linejoin: miter; stroke-linecap: square"/>
   </g>
  </g>
 </g>
 <defs>
  <clipPath id="p17b662e220">
   <rect x="36.403365" y="3.00024" width="385.990501" height="156.99952"/>
  </clipPath>
 </defs>
</svg>
