<?xml version="1.0" encoding="utf-8" standalone="no"?>
<!DOCTYPE svg PUBLIC "-//W3C//DTD SVG 1.1//EN"
  "http://www.w3.org/Graphics/SVG/1.1/DTD/svg11.dtd">
<svg xmlns:xlink="http://www.w3.org/1999/xlink" width="432pt" height="180pt" viewBox="0 0 432 180" xmlns="http://www.w3.org/2000/svg" version="1.1">
 <metadata>
  <rdf:RDF xmlns:dc="http://purl.org/dc/elements/1.1/" xmlns:cc="http://creativecommons.org/ns#" xmlns:rdf="http://www.w3.org/1999/02/22-rdf-syntax-ns#">
   <cc:Work>
    <dc:type rdf:resource="http://purl.org/dc/dcmitype/StillImage"/>
    <dc:date>2025-02-03T12:28:33.048859</dc:date>
    <dc:format>image/svg+xml</dc:format>
    <dc:creator>
     <cc:Agent>
      <dc:title>Matplotlib v3.9.0, https://matplotlib.org/</dc:title>
     </cc:Agent>
    </dc:creator>
   </cc:Work>
  </rdf:RDF>
 </metadata>
 <defs>
  <style type="text/css">*{stroke-linejoin: round; stroke-linecap: butt}</style>
 </defs>
 <g id="figure_1">
  <g id="patch_1">
   <path d="M 0 180 
L 432 180 
L 432 0 
L 0 0 
z
" style="fill: #ffffff"/>
  </g>
  <g id="axes_1">
   <g id="patch_2">
    <path d="M 30.040865 160.321635 
L 426.200024 160.321635 
L 426.200024 3.00024 
L 30.040865 3.00024 
z
" style="fill: #ffffff"/>
   </g>
   <g id="matplotlib.axis_1">
    <g id="xtick_1">
     <g id="line2d_1">
      <defs>
       <path id="m718394221d" d="M 0 0 
L 0 3.5 
" style="stroke: #000000; stroke-width: 0.8"/>
      </defs>
      <g>
       <use xlink:href="#m718394221d" x="30.040865" y="160.321635" style="stroke: #000000; stroke-width: 0.8"/>
      </g>
     </g>
     <g id="text_1">
      <!-- $\Gamma$ -->
      <g transform="translate(27.240865 174.920073) scale(0.1 -0.1)">
       <defs>
        <path id="DejaVuSans-393" d="M 628 0 
L 628 4666 
L 3531 4666 
L 3531 4134 
L 1259 4134 
L 1259 0 
L 628 0 
z
" transform="scale(0.015625)"/>
       </defs>
       <use xlink:href="#DejaVuSans-393" transform="translate(0 0.09375)"/>
      </g>
     </g>
    </g>
    <g id="xtick_2">
     <g id="line2d_2">
      <g>
       <use xlink:href="#m718394221d" x="197.477486" y="160.321635" style="stroke: #000000; stroke-width: 0.8"/>
      </g>
     </g>
     <g id="text_2">
      <!-- K -->
      <g transform="translate(194.19858 174.920073) scale(0.1 -0.1)">
       <defs>
        <path id="DejaVuSans-4b" d="M 628 4666 
L 1259 4666 
L 1259 2694 
L 3353 4666 
L 4166 4666 
L 1850 2491 
L 4331 0 
L 3500 0 
L 1259 2247 
L 1259 0 
L 628 0 
L 628 4666 
z
" transform="scale(0.015625)"/>
       </defs>
       <use xlink:href="#DejaVuSans-4b"/>
      </g>
     </g>
    </g>
    <g id="xtick_3">
     <g id="line2d_3">
      <g>
       <use xlink:href="#m718394221d" x="281.195797" y="160.321635" style="stroke: #000000; stroke-width: 0.8"/>
      </g>
     </g>
     <g id="text_3">
      <!-- M -->
      <g transform="translate(276.881734 174.920073) scale(0.1 -0.1)">
       <defs>
        <path id="DejaVuSans-4d" d="M 628 4666 
L 1569 4666 
L 2759 1491 
L 3956 4666 
L 4897 4666 
L 4897 0 
L 4281 0 
L 4281 4097 
L 3078 897 
L 2444 897 
L 1241 4097 
L 1241 0 
L 628 0 
L 628 4666 
z
" transform="scale(0.015625)"/>
       </defs>
       <use xlink:href="#DejaVuSans-4d"/>
      </g>
     </g>
    </g>
    <g id="xtick_4">
     <g id="line2d_4">
      <g>
       <use xlink:href="#m718394221d" x="426.19976" y="160.321635" style="stroke: #000000; stroke-width: 0.8"/>
      </g>
     </g>
     <g id="text_4">
      <!-- $\Gamma$ -->
      <g transform="translate(423.39976 174.920073) scale(0.1 -0.1)">
       <use xlink:href="#DejaVuSans-393" transform="translate(0 0.09375)"/>
      </g>
     </g>
    </g>
   </g>
   <g id="matplotlib.axis_2">
    <g id="ytick_1">
     <g id="line2d_5">
      <defs>
       <path id="m33efc4242a" d="M 0 0 
L -3.5 0 
" style="stroke: #000000; stroke-width: 0.8"/>
      </defs>
      <g>
       <use xlink:href="#m33efc4242a" x="30.040865" y="153.170662" style="stroke: #000000; stroke-width: 0.8"/>
      </g>
     </g>
     <g id="text_5">
      <!-- 0 -->
      <g transform="translate(16.678365 156.96988) scale(0.1 -0.1)">
       <defs>
        <path id="DejaVuSans-30" d="M 2034 4250 
Q 1547 4250 1301 3770 
Q 1056 3291 1056 2328 
Q 1056 1369 1301 889 
Q 1547 409 2034 409 
Q 2525 409 2770 889 
Q 3016 1369 3016 2328 
Q 3016 3291 2770 3770 
Q 2525 4250 2034 4250 
z
M 2034 4750 
Q 2819 4750 3233 4129 
Q 3647 3509 3647 2328 
Q 3647 1150 3233 529 
Q 2819 -91 2034 -91 
Q 1250 -91 836 529 
Q 422 1150 422 2328 
Q 422 3509 836 4129 
Q 1250 4750 2034 4750 
z
" transform="scale(0.015625)"/>
       </defs>
       <use xlink:href="#DejaVuSans-30"/>
      </g>
     </g>
    </g>
    <g id="ytick_2">
     <g id="line2d_6">
      <g>
       <use xlink:href="#m33efc4242a" x="30.040865" y="115.481727" style="stroke: #000000; stroke-width: 0.8"/>
      </g>
     </g>
     <g id="text_6">
      <!-- 1 -->
      <g transform="translate(16.678365 119.280946) scale(0.1 -0.1)">
       <defs>
        <path id="DejaVuSans-31" d="M 794 531 
L 1825 531 
L 1825 4091 
L 703 3866 
L 703 4441 
L 1819 4666 
L 2450 4666 
L 2450 531 
L 3481 531 
L 3481 0 
L 794 0 
L 794 531 
z
" transform="scale(0.015625)"/>
       </defs>
       <use xlink:href="#DejaVuSans-31"/>
      </g>
     </g>
    </g>
    <g id="ytick_3">
     <g id="line2d_7">
      <g>
       <use xlink:href="#m33efc4242a" x="30.040865" y="77.792793" style="stroke: #000000; stroke-width: 0.8"/>
      </g>
     </g>
     <g id="text_7">
      <!-- 2 -->
      <g transform="translate(16.678365 81.592012) scale(0.1 -0.1)">
       <defs>
        <path id="DejaVuSans-32" d="M 1228 531 
L 3431 531 
L 3431 0 
L 469 0 
L 469 531 
Q 828 903 1448 1529 
Q 2069 2156 2228 2338 
Q 2531 2678 2651 2914 
Q 2772 3150 2772 3378 
Q 2772 3750 2511 3984 
Q 2250 4219 1831 4219 
Q 1534 4219 1204 4116 
Q 875 4013 500 3803 
L 500 4441 
Q 881 4594 1212 4672 
Q 1544 4750 1819 4750 
Q 2544 4750 2975 4387 
Q 3406 4025 3406 3419 
Q 3406 3131 3298 2873 
Q 3191 2616 2906 2266 
Q 2828 2175 2409 1742 
Q 1991 1309 1228 531 
z
" transform="scale(0.015625)"/>
       </defs>
       <use xlink:href="#DejaVuSans-32"/>
      </g>
     </g>
    </g>
    <g id="ytick_4">
     <g id="line2d_8">
      <g>
       <use xlink:href="#m33efc4242a" x="30.040865" y="40.103859" style="stroke: #000000; stroke-width: 0.8"/>
      </g>
     </g>
     <g id="text_8">
      <!-- 3 -->
      <g transform="translate(16.678365 43.903078) scale(0.1 -0.1)">
       <defs>
        <path id="DejaVuSans-33" d="M 2597 2516 
Q 3050 2419 3304 2112 
Q 3559 1806 3559 1356 
Q 3559 666 3084 287 
Q 2609 -91 1734 -91 
Q 1441 -91 1130 -33 
Q 819 25 488 141 
L 488 750 
Q 750 597 1062 519 
Q 1375 441 1716 441 
Q 2309 441 2620 675 
Q 2931 909 2931 1356 
Q 2931 1769 2642 2001 
Q 2353 2234 1838 2234 
L 1294 2234 
L 1294 2753 
L 1863 2753 
Q 2328 2753 2575 2939 
Q 2822 3125 2822 3475 
Q 2822 3834 2567 4026 
Q 2313 4219 1838 4219 
Q 1578 4219 1281 4162 
Q 984 4106 628 3988 
L 628 4550 
Q 988 4650 1302 4700 
Q 1616 4750 1894 4750 
Q 2613 4750 3031 4423 
Q 3450 4097 3450 3541 
Q 3450 3153 3228 2886 
Q 3006 2619 2597 2516 
z
" transform="scale(0.015625)"/>
       </defs>
       <use xlink:href="#DejaVuSans-33"/>
      </g>
     </g>
    </g>
    <g id="text_9">
     <!-- Frequency (THz) -->
     <g transform="translate(10.598677 122.419531) rotate(-90) scale(0.1 -0.1)">
      <defs>
       <path id="DejaVuSans-46" d="M 628 4666 
L 3309 4666 
L 3309 4134 
L 1259 4134 
L 1259 2759 
L 3109 2759 
L 3109 2228 
L 1259 2228 
L 1259 0 
L 628 0 
L 628 4666 
z
" transform="scale(0.015625)"/>
       <path id="DejaVuSans-72" d="M 2631 2963 
Q 2534 3019 2420 3045 
Q 2306 3072 2169 3072 
Q 1681 3072 1420 2755 
Q 1159 2438 1159 1844 
L 1159 0 
L 581 0 
L 581 3500 
L 1159 3500 
L 1159 2956 
Q 1341 3275 1631 3429 
Q 1922 3584 2338 3584 
Q 2397 3584 2469 3576 
Q 2541 3569 2628 3553 
L 2631 2963 
z
" transform="scale(0.015625)"/>
       <path id="DejaVuSans-65" d="M 3597 1894 
L 3597 1613 
L 953 1613 
Q 991 1019 1311 708 
Q 1631 397 2203 397 
Q 2534 397 2845 478 
Q 3156 559 3463 722 
L 3463 178 
Q 3153 47 2828 -22 
Q 2503 -91 2169 -91 
Q 1331 -91 842 396 
Q 353 884 353 1716 
Q 353 2575 817 3079 
Q 1281 3584 2069 3584 
Q 2775 3584 3186 3129 
Q 3597 2675 3597 1894 
z
M 3022 2063 
Q 3016 2534 2758 2815 
Q 2500 3097 2075 3097 
Q 1594 3097 1305 2825 
Q 1016 2553 972 2059 
L 3022 2063 
z
" transform="scale(0.015625)"/>
       <path id="DejaVuSans-71" d="M 947 1747 
Q 947 1113 1208 752 
Q 1469 391 1925 391 
Q 2381 391 2643 752 
Q 2906 1113 2906 1747 
Q 2906 2381 2643 2742 
Q 2381 3103 1925 3103 
Q 1469 3103 1208 2742 
Q 947 2381 947 1747 
z
M 2906 525 
Q 2725 213 2448 61 
Q 2172 -91 1784 -91 
Q 1150 -91 751 415 
Q 353 922 353 1747 
Q 353 2572 751 3078 
Q 1150 3584 1784 3584 
Q 2172 3584 2448 3432 
Q 2725 3281 2906 2969 
L 2906 3500 
L 3481 3500 
L 3481 -1331 
L 2906 -1331 
L 2906 525 
z
" transform="scale(0.015625)"/>
       <path id="DejaVuSans-75" d="M 544 1381 
L 544 3500 
L 1119 3500 
L 1119 1403 
Q 1119 906 1312 657 
Q 1506 409 1894 409 
Q 2359 409 2629 706 
Q 2900 1003 2900 1516 
L 2900 3500 
L 3475 3500 
L 3475 0 
L 2900 0 
L 2900 538 
Q 2691 219 2414 64 
Q 2138 -91 1772 -91 
Q 1169 -91 856 284 
Q 544 659 544 1381 
z
M 1991 3584 
L 1991 3584 
z
" transform="scale(0.015625)"/>
       <path id="DejaVuSans-6e" d="M 3513 2113 
L 3513 0 
L 2938 0 
L 2938 2094 
Q 2938 2591 2744 2837 
Q 2550 3084 2163 3084 
Q 1697 3084 1428 2787 
Q 1159 2491 1159 1978 
L 1159 0 
L 581 0 
L 581 3500 
L 1159 3500 
L 1159 2956 
Q 1366 3272 1645 3428 
Q 1925 3584 2291 3584 
Q 2894 3584 3203 3211 
Q 3513 2838 3513 2113 
z
" transform="scale(0.015625)"/>
       <path id="DejaVuSans-63" d="M 3122 3366 
L 3122 2828 
Q 2878 2963 2633 3030 
Q 2388 3097 2138 3097 
Q 1578 3097 1268 2742 
Q 959 2388 959 1747 
Q 959 1106 1268 751 
Q 1578 397 2138 397 
Q 2388 397 2633 464 
Q 2878 531 3122 666 
L 3122 134 
Q 2881 22 2623 -34 
Q 2366 -91 2075 -91 
Q 1284 -91 818 406 
Q 353 903 353 1747 
Q 353 2603 823 3093 
Q 1294 3584 2113 3584 
Q 2378 3584 2631 3529 
Q 2884 3475 3122 3366 
z
" transform="scale(0.015625)"/>
       <path id="DejaVuSans-79" d="M 2059 -325 
Q 1816 -950 1584 -1140 
Q 1353 -1331 966 -1331 
L 506 -1331 
L 506 -850 
L 844 -850 
Q 1081 -850 1212 -737 
Q 1344 -625 1503 -206 
L 1606 56 
L 191 3500 
L 800 3500 
L 1894 763 
L 2988 3500 
L 3597 3500 
L 2059 -325 
z
" transform="scale(0.015625)"/>
       <path id="DejaVuSans-20" transform="scale(0.015625)"/>
       <path id="DejaVuSans-28" d="M 1984 4856 
Q 1566 4138 1362 3434 
Q 1159 2731 1159 2009 
Q 1159 1288 1364 580 
Q 1569 -128 1984 -844 
L 1484 -844 
Q 1016 -109 783 600 
Q 550 1309 550 2009 
Q 550 2706 781 3412 
Q 1013 4119 1484 4856 
L 1984 4856 
z
" transform="scale(0.015625)"/>
       <path id="DejaVuSans-54" d="M -19 4666 
L 3928 4666 
L 3928 4134 
L 2272 4134 
L 2272 0 
L 1638 0 
L 1638 4134 
L -19 4134 
L -19 4666 
z
" transform="scale(0.015625)"/>
       <path id="DejaVuSans-48" d="M 628 4666 
L 1259 4666 
L 1259 2753 
L 3553 2753 
L 3553 4666 
L 4184 4666 
L 4184 0 
L 3553 0 
L 3553 2222 
L 1259 2222 
L 1259 0 
L 628 0 
L 628 4666 
z
" transform="scale(0.015625)"/>
       <path id="DejaVuSans-7a" d="M 353 3500 
L 3084 3500 
L 3084 2975 
L 922 459 
L 3084 459 
L 3084 0 
L 275 0 
L 275 525 
L 2438 3041 
L 353 3041 
L 353 3500 
z
" transform="scale(0.015625)"/>
       <path id="DejaVuSans-29" d="M 513 4856 
L 1013 4856 
Q 1481 4119 1714 3412 
Q 1947 2706 1947 2009 
Q 1947 1309 1714 600 
Q 1481 -109 1013 -844 
L 513 -844 
Q 928 -128 1133 580 
Q 1338 1288 1338 2009 
Q 1338 2731 1133 3434 
Q 928 4138 513 4856 
z
" transform="scale(0.015625)"/>
      </defs>
      <use xlink:href="#DejaVuSans-46"/>
      <use xlink:href="#DejaVuSans-72" x="50.269531"/>
      <use xlink:href="#DejaVuSans-65" x="89.132812"/>
      <use xlink:href="#DejaVuSans-71" x="150.65625"/>
      <use xlink:href="#DejaVuSans-75" x="214.132812"/>
      <use xlink:href="#DejaVuSans-65" x="277.511719"/>
      <use xlink:href="#DejaVuSans-6e" x="339.035156"/>
      <use xlink:href="#DejaVuSans-63" x="402.414062"/>
      <use xlink:href="#DejaVuSans-79" x="457.394531"/>
      <use xlink:href="#DejaVuSans-20" x="516.574219"/>
      <use xlink:href="#DejaVuSans-28" x="548.361328"/>
      <use xlink:href="#DejaVuSans-54" x="587.375"/>
      <use xlink:href="#DejaVuSans-48" x="648.458984"/>
      <use xlink:href="#DejaVuSans-7a" x="723.654297"/>
      <use xlink:href="#DejaVuSans-29" x="776.144531"/>
     </g>
    </g>
   </g>
   <g id="line2d_9">
    <path d="M 30.040865 153.170662 
L 50.133252 134.897033 
L 60.179446 126.035432 
L 68.551274 118.894361 
L 76.923102 112.036204 
L 83.620565 106.789673 
L 90.318027 101.78431 
L 97.01549 97.043761 
L 103.712952 92.589641 
L 110.410415 88.441604 
L 117.107877 84.617762 
L 122.130974 81.973332 
L 127.154071 79.529859 
L 132.177168 77.299392 
L 137.200265 75.304076 
L 142.223362 73.597479 
L 145.572093 72.690574 
L 148.920824 72.094663 
L 150.59519 71.971897 
L 152.269555 71.991527 
L 155.618287 72.409246 
L 160.641384 73.483919 
L 167.338846 74.88121 
L 172.361943 75.672985 
L 177.38504 76.212324 
L 182.408137 76.522705 
L 189.105599 76.669629 
L 206.686438 76.827009 
L 211.709535 77.14501 
L 216.732632 77.689801 
L 221.755729 78.487695 
L 226.778825 79.543083 
L 231.801922 80.838293 
L 237.662202 82.59932 
L 246.03403 85.396523 
L 256.080224 88.733246 
L 261.940503 90.42577 
L 266.9636 91.612811 
L 271.149514 92.367141 
L 275.335428 92.877132 
L 279.521342 93.123171 
L 282.645751 93.123972 
L 285.545837 92.955339 
L 288.445923 92.623633 
L 292.796053 91.846077 
L 297.146182 90.788468 
L 302.946355 89.099382 
L 310.196571 86.951377 
L 314.5467 85.901045 
L 317.446787 85.385811 
L 320.346873 85.053377 
L 323.246959 84.920383 
L 326.147046 84.991959 
L 329.047132 85.264367 
L 331.947218 85.728387 
L 334.847305 86.37221 
L 337.747391 87.183357 
L 342.097521 88.687518 
L 346.44765 90.503722 
L 350.79778 92.599222 
L 355.147909 94.945478 
L 359.498039 97.517503 
L 365.298211 101.260293 
L 371.098384 105.319639 
L 376.898557 109.655396 
L 384.148772 115.409399 
L 391.398988 121.475801 
L 400.099247 129.08553 
L 410.249549 138.29845 
L 424.749981 151.810428 
L 426.200024 153.170662 
L 426.200024 153.170662 
" clip-path="url(#pffb5762083)" style="fill: none; stroke: #000000; stroke-linecap: square"/>
   </g>
   <g id="line2d_10">
    <path d="M 30.040865 153.170662 
L 48.458887 131.923172 
L 58.505081 120.695296 
L 66.876909 111.684342 
L 73.574371 104.767618 
L 80.271834 98.160682 
L 86.969296 91.910207 
L 91.992393 87.485303 
L 97.01549 83.310042 
L 102.038587 79.408918 
L 107.061684 75.81069 
L 112.08478 72.550802 
L 115.433512 70.587152 
L 118.782243 68.809223 
L 122.130974 67.233844 
L 125.479705 65.876634 
L 128.828437 64.747786 
L 132.177168 63.846941 
L 135.525899 63.159989 
L 137.200265 62.888824 
L 138.87463 63.335996 
L 143.897727 65.429848 
L 147.246459 66.582936 
L 148.920824 67.020994 
L 150.59519 67.328779 
L 152.269555 67.486787 
L 153.943921 67.499149 
L 157.292652 67.20704 
L 162.315749 66.428047 
L 172.361943 64.833826 
L 179.059405 63.987056 
L 185.756868 63.341217 
L 192.45433 62.892967 
L 198.31461 62.716004 
L 205.849255 63.06272 
L 211.709535 63.563602 
L 216.732632 64.203175 
L 221.755729 65.048798 
L 227.616008 66.27084 
L 235.150653 68.110438 
L 254.405858 72.991946 
L 260.266138 74.210769 
L 266.126417 75.188787 
L 271.149514 75.798507 
L 276.172611 76.173481 
L 281.195708 76.300017 
L 281.195708 76.300017 
L 285.545837 76.205348 
L 289.895967 75.927711 
L 295.696139 75.307899 
L 302.946355 74.253599 
L 313.096657 72.731801 
L 317.446787 72.276165 
L 321.796916 72.065246 
L 324.697003 72.102256 
L 327.597089 72.305996 
L 330.497175 72.692075 
L 333.397262 73.270182 
L 336.297348 74.043974 
L 339.197434 75.011693 
L 342.097521 76.167298 
L 344.997607 77.501796 
L 349.347736 79.815366 
L 353.697866 82.468981 
L 358.047995 85.425542 
L 362.398125 88.651357 
L 366.748254 92.116715 
L 372.548427 97.065329 
L 378.3486 102.34063 
L 384.148772 107.896618 
L 391.398988 115.174412 
L 398.649204 122.754777 
L 407.349463 132.156411 
L 418.949808 145.029928 
L 426.200024 153.170662 
L 426.200024 153.170662 
" clip-path="url(#pffb5762083)" style="fill: none; stroke: #000000; stroke-linecap: square"/>
   </g>
   <g id="line2d_11">
    <path d="M 30.040865 153.17066 
L 46.784521 131.837371 
L 56.830715 119.393327 
L 65.202543 109.38845 
L 71.900006 101.696706 
L 78.597468 94.337425 
L 85.294931 87.360829 
L 90.318027 82.410288 
L 95.341124 77.727136 
L 100.364221 73.33859 
L 105.387318 69.281034 
L 108.736049 66.787187 
L 112.08478 64.494648 
L 115.433512 62.453712 
L 118.782243 60.757028 
L 120.456609 60.086425 
L 122.130974 59.571421 
L 123.80534 59.242976 
L 125.479705 59.124702 
L 127.154071 59.221335 
L 128.828437 59.513606 
L 130.502802 59.964873 
L 133.851534 61.181954 
L 137.200265 62.60411 
L 138.87463 62.660582 
L 143.897727 62.191265 
L 148.920824 61.964345 
L 155.618287 61.901001 
L 165.66448 62.07034 
L 187.431234 62.508378 
L 211.709535 62.938501 
L 216.732632 63.389625 
L 222.592911 64.152901 
L 230.127557 65.393852 
L 247.708395 68.403673 
L 255.243041 69.44179 
L 262.777686 70.245846 
L 269.475148 70.742894 
L 276.172611 71.02283 
L 282.645751 71.082963 
L 291.34601 70.921178 
L 298.596226 70.557359 
L 304.396398 70.040081 
L 308.746528 69.45715 
L 313.096657 68.653594 
L 317.446787 67.601623 
L 323.246959 65.880397 
L 329.047132 64.139313 
L 331.947218 63.478767 
L 334.847305 63.116026 
L 336.297348 63.081939 
L 337.747391 63.159368 
L 339.197434 63.352781 
L 342.097521 64.083295 
L 344.997607 65.2346 
L 347.897693 66.744259 
L 350.79778 68.550619 
L 353.697866 70.601975 
L 358.047995 74.052116 
L 362.398125 77.864634 
L 366.748254 81.972134 
L 372.548427 87.828016 
L 378.3486 94.046075 
L 384.148772 100.56774 
L 391.398988 109.075501 
L 400.099247 119.703289 
L 410.249549 132.524921 
L 424.749981 151.283424 
L 426.200024 153.17066 
L 426.200024 153.17066 
" clip-path="url(#pffb5762083)" style="fill: none; stroke: #000000; stroke-linecap: square"/>
   </g>
   <g id="line2d_12">
    <path d="M 30.040865 47.911197 
L 40.087059 48.044441 
L 50.133252 48.435675 
L 60.179446 49.059383 
L 71.900006 50.02286 
L 93.666759 52.127566 
L 105.387318 53.124998 
L 112.08478 53.516283 
L 118.782243 53.676448 
L 123.80534 53.58523 
L 128.828437 53.284427 
L 143.897727 52.040436 
L 147.246459 52.072524 
L 152.269555 52.386889 
L 162.315749 53.136312 
L 169.013212 53.338477 
L 175.710674 53.2691 
L 187.431234 52.81584 
L 195.803062 52.60516 
L 203.337707 52.672182 
L 225.10446 53.125241 
L 233.476288 52.958012 
L 246.03403 52.451713 
L 265.289234 51.687372 
L 277.009794 51.467207 
L 285.545837 51.493032 
L 292.796053 51.747294 
L 301.496312 52.309323 
L 314.5467 53.442278 
L 326.147046 54.383881 
L 331.947218 54.648891 
L 336.297348 54.612756 
L 340.647477 54.326387 
L 353.697866 53.006974 
L 389.948945 49.534079 
L 401.54929 48.691902 
L 411.699593 48.187184 
L 420.399852 47.955769 
L 426.200024 47.911197 
L 426.200024 47.911197 
" clip-path="url(#pffb5762083)" style="fill: none; stroke: #000000; stroke-linecap: square"/>
   </g>
   <g id="line2d_13">
    <path d="M 30.040865 10.151213 
L 35.063962 10.304132 
L 40.087059 10.761773 
L 45.110156 11.520773 
L 50.133252 12.575508 
L 55.156349 13.918053 
L 60.179446 15.538134 
L 65.202543 17.423041 
L 70.22564 19.557517 
L 75.248737 21.923586 
L 80.271834 24.500294 
L 86.969296 28.220917 
L 93.666759 32.202715 
L 105.387318 39.511641 
L 112.08478 43.612246 
L 115.433512 45.513496 
L 118.782243 47.193144 
L 120.456609 47.897846 
L 122.130974 48.47341 
L 123.80534 48.887315 
L 125.479705 49.114294 
L 127.154071 49.14785 
L 128.828437 49.005367 
L 132.177168 48.335502 
L 137.200265 46.878261 
L 140.548996 45.959253 
L 143.897727 46.419944 
L 147.246459 46.592428 
L 150.59519 46.520251 
L 155.618287 46.142107 
L 170.687577 44.818435 
L 180.733771 44.268214 
L 190.779965 43.701829 
L 195.803062 43.247903 
L 197.477427 43.057004 
L 205.012073 43.851861 
L 210.035169 44.163325 
L 214.221083 44.225616 
L 218.406997 44.084573 
L 222.592911 43.74145 
L 227.616008 43.094609 
L 233.476288 42.096127 
L 242.685299 40.258328 
L 253.568675 38.126389 
L 260.266138 37.028681 
L 266.126417 36.274388 
L 271.986697 35.747523 
L 277.846976 35.469384 
L 282.645751 35.432855 
L 288.445923 35.579203 
L 295.696139 36.009151 
L 305.846441 36.896802 
L 314.5467 37.587053 
L 318.89683 37.758884 
L 323.246959 37.819114 
L 327.597089 39.285705 
L 330.497175 40.113369 
L 333.397262 40.74345 
L 336.297348 41.105345 
L 339.197434 41.140666 
L 342.097521 40.820945 
L 344.997607 40.157166 
L 347.897693 39.193817 
L 350.79778 37.992335 
L 355.147909 35.878247 
L 360.948082 32.736742 
L 375.448513 24.716401 
L 381.248686 21.774801 
L 387.048859 19.092537 
L 392.849031 16.713458 
L 397.199161 15.148145 
L 401.54929 13.782747 
L 405.89942 12.625988 
L 410.249549 11.684834 
L 414.599679 10.964703 
L 418.949808 10.469597 
L 423.299938 10.202207 
L 426.200024 10.151213 
L 426.200024 10.151213 
" clip-path="url(#pffb5762083)" style="fill: none; stroke: #000000; stroke-linecap: square"/>
   </g>
   <g id="line2d_14">
    <path d="M 30.040865 10.151213 
L 35.063962 10.269669 
L 40.087059 10.623987 
L 45.110156 11.211014 
L 50.133252 12.02549 
L 55.156349 13.06004 
L 60.179446 14.305163 
L 65.202543 15.749218 
L 70.22564 17.378406 
L 76.923102 19.810714 
L 83.620565 22.499531 
L 91.992393 26.142823 
L 103.712952 31.557965 
L 117.107877 37.739687 
L 123.80534 40.613959 
L 128.828437 42.576314 
L 133.851534 44.287439 
L 137.200265 45.230892 
L 138.87463 45.625473 
L 140.548996 45.849519 
L 145.572093 44.407884 
L 150.59519 43.178977 
L 155.618287 42.206148 
L 160.641384 41.503569 
L 165.66448 41.070273 
L 170.687577 40.895128 
L 175.710674 40.958285 
L 180.733771 41.230943 
L 187.431234 41.851197 
L 197.477427 43.057004 
L 197.477427 43.057004 
L 202.500524 42.352876 
L 208.360804 41.290597 
L 215.058266 39.820881 
L 224.267277 37.538481 
L 241.010933 33.356204 
L 248.545578 31.71253 
L 255.243041 30.466934 
L 261.10332 29.577047 
L 266.9636 28.896018 
L 272.82388 28.439335 
L 278.684159 28.217135 
L 284.095794 28.24764 
L 288.445923 28.52288 
L 292.796053 29.030785 
L 297.146182 29.765124 
L 301.496312 30.715841 
L 305.846441 31.867715 
L 311.646614 33.67572 
L 318.89683 36.240034 
L 323.246959 37.730492 
L 327.597089 37.447324 
L 331.947218 36.875289 
L 336.297348 36.007853 
L 340.647477 34.86538 
L 344.997607 33.487763 
L 350.79778 31.371512 
L 358.047995 28.445626 
L 376.898557 20.673633 
L 384.148772 17.993518 
L 389.948945 16.071495 
L 395.749118 14.382632 
L 401.54929 12.952886 
L 407.349463 11.802611 
L 413.149636 10.947246 
L 417.499765 10.506028 
L 421.849895 10.240069 
L 426.200024 10.151213 
L 426.200024 10.151213 
" clip-path="url(#pffb5762083)" style="fill: none; stroke: #000000; stroke-linecap: square"/>
   </g>
   <g id="line2d_15">
    <path d="M 30.040865 160.321635 
L 30.040865 3.00024 
" clip-path="url(#pffb5762083)" style="fill: none; stroke: #000000; stroke-width: 0.5; stroke-linecap: square"/>
   </g>
   <g id="line2d_16">
    <path d="M 197.477486 160.321635 
L 197.477486 3.00024 
" clip-path="url(#pffb5762083)" style="fill: none; stroke: #000000; stroke-width: 0.5; stroke-linecap: square"/>
   </g>
   <g id="line2d_17">
    <path d="M 281.195797 160.321635 
L 281.195797 3.00024 
" clip-path="url(#pffb5762083)" style="fill: none; stroke: #000000; stroke-width: 0.5; stroke-linecap: square"/>
   </g>
   <g id="line2d_18">
    <path d="M 426.19976 160.321635 
L 426.19976 3.00024 
" clip-path="url(#pffb5762083)" style="fill: none; stroke: #000000; stroke-width: 0.5; stroke-linecap: square"/>
   </g>
   <g id="line2d_19">
    <path d="M 30.040865 153.170662 
L 426.200024 153.170662 
" clip-path="url(#pffb5762083)" style="fill: none; stroke-dasharray: 1.85,0.8; stroke-dashoffset: 0; stroke: #0000ff; stroke-width: 0.5"/>
   </g>
   <g id="patch_3">
    <path d="M 30.040865 160.321635 
L 30.040865 3.00024 
" style="fill: none; stroke: #000000; stroke-width: 0.8; stroke-linejoin: miter; stroke-linecap: square"/>
   </g>
   <g id="patch_4">
    <path d="M 426.200024 160.321635 
L 426.200024 3.00024 
" style="fill: none; stroke: #000000; stroke-width: 0.8; stroke-linejoin: miter; stroke-linecap: square"/>
   </g>
   <g id="patch_5">
    <path d="M 30.040865 160.321635 
L 426.200024 160.321635 
" style="fill: none; stroke: #000000; stroke-width: 0.8; stroke-linejoin: miter; stroke-linecap: square"/>
   </g>
   <g id="patch_6">
    <path d="M 30.040865 3.00024 
L 426.200024 3.00024 
" style="fill: none; stroke: #000000; stroke-width: 0.8; stroke-linejoin: miter; stroke-linecap: square"/>
   </g>
  </g>
 </g>
 <defs>
  <clipPath id="pffb5762083">
   <rect x="30.040865" y="3.00024" width="396.159159" height="157.321395"/>
  </clipPath>
 </defs>
</svg>
